# Blender 4.4.3
# www.blender.org
o Blaster
v 0.250000 1.828848 0.498227
v 0.250000 1.849455 1.399379
v 0.250000 1.419272 0.785015
v -0.125000 1.726454 0.569924
v -0.250000 1.419272 0.785015
v -0.250000 1.828848 0.498227
v -0.250000 1.849455 1.399379
v -0.187500 2.207834 1.148439
v 0.250000 2.259031 1.112591
v -0.250000 2.259031 1.112591
v -0.187500 2.279531 1.250834
v 0.187500 2.207834 1.148439
v -0.187500 1.900652 1.363531
v 0.187500 1.900652 1.363531
v 0.187500 1.972349 1.465925
v -0.187500 1.972349 1.465925
v 0.187500 2.279531 1.250834
v 0.125000 1.378272 0.508530
v 0.125000 1.726454 0.569924
v 0.125000 1.521666 0.713318
v -0.125000 1.521666 0.713318
v -0.062500 1.531863 0.400984
v -0.125000 1.378272 0.508530
v -0.125000 1.583060 0.365136
v 0.125000 1.583060 0.365136
v 0.062500 1.531863 0.400984
v 0.062500 1.429469 0.472682
v -0.062500 1.429469 0.472682
v -0.039239 1.341789 0.306909
v -0.039221 1.405979 0.261787
v 0.039212 1.405926 0.261729
v 0.039208 1.341673 0.306687
v 0.250000 1.849455 -1.399379
v 0.250000 1.828848 -0.498227
v 0.250000 1.419272 -0.785015
v -0.250000 1.419272 -0.785015
v -0.125000 1.726454 -0.569924
v -0.250000 1.828848 -0.498227
v -0.250000 1.849455 -1.399379
v 0.250000 2.259031 -1.112591
v -0.187500 2.207834 -1.148439
v -0.250000 2.259031 -1.112591
v 0.187500 2.207834 -1.148439
v -0.187500 2.279531 -1.250834
v -0.187500 1.900652 -1.363531
v 0.187500 1.900652 -1.363531
v 0.187500 1.972349 -1.465925
v -0.187500 1.972349 -1.465925
v 0.187500 2.279531 -1.250834
v 0.125000 1.726454 -0.569924
v 0.125000 1.378272 -0.508530
v 0.125000 1.521666 -0.713318
v -0.125000 1.521666 -0.713318
v -0.125000 1.378272 -0.508530
v -0.062500 1.531863 -0.400984
v -0.125000 1.583060 -0.365136
v 0.125000 1.583060 -0.365136
v 0.062500 1.531863 -0.400984
v 0.062500 1.429469 -0.472682
v -0.062500 1.429469 -0.472682
v -0.039239 1.341789 -0.306909
v -0.039221 1.405979 -0.261787
v 0.039212 1.405926 -0.261729
v 0.039208 1.341673 -0.306688
vn 1.0000 -0.0000 -0.0000
vn -0.0000 -0.5736 -0.8192
vn -1.0000 -0.0000 -0.0000
vn -0.0000 0.5736 0.8192
vn -0.0000 -0.8192 0.5736
vn -0.0000 0.8192 -0.5736
vn -0.9923 -0.0711 -0.1016
vn -0.0000 -0.8840 0.4675
vn -0.0000 0.7417 -0.6708
vn -0.0000 0.7417 -0.6707
vn 0.9923 -0.0711 -0.1016
vn 0.9923 -0.0712 -0.1016
vn -0.0021 -0.5742 -0.8187
vn -0.0032 -0.5751 -0.8181
vn -0.0000 -0.5736 0.8192
vn -0.0000 0.5736 -0.8192
vn -0.0000 -0.8192 -0.5736
vn -0.0000 0.8192 0.5736
vn -0.9923 -0.0711 0.1016
vn -0.0000 -0.8840 -0.4675
vn -0.0000 0.7417 0.6708
vn -0.0000 0.7417 0.6707
vn 0.9923 -0.0711 0.1016
vn 0.9923 -0.0712 0.1016
vn -0.0021 -0.5742 0.8187
vn -0.0032 -0.5751 0.8181
vn -0.0010 -0.5733 -0.8193
vn -0.0010 -0.5733 0.8193
vt 0.539194 0.281090
vt 0.445421 0.343605
vt 0.539194 0.343605
vt 0.554823 0.327945
vt 0.539194 0.281059
vt 0.539194 0.343574
vt 0.445421 0.281059
vt 0.437607 0.226389
vt 0.445421 0.281090
vt 0.445421 0.218574
vt 0.445421 0.218605
vt 0.539194 0.281121
vt 0.539194 0.218605
vt 0.539194 0.218574
vt 0.421978 0.226389
vt 0.437607 0.273275
vt 0.437607 0.288873
vt 0.445421 0.343574
vt 0.437607 0.335791
vt 0.437607 0.288904
vt 0.437607 0.226420
vt 0.445421 0.281121
vt 0.375091 0.273275
vt 0.375091 0.226389
vt 0.421978 0.335760
vt 0.421978 0.288873
vt 0.421978 0.226420
vt 0.437607 0.273306
vt 0.421978 0.288904
vt 0.586080 0.327976
vt 0.554823 0.296719
vt 0.554823 0.327976
vt 0.554823 0.265491
vt 0.554823 0.265461
vt 0.593895 0.320132
vt 0.586080 0.296688
vt 0.586080 0.327945
vt 0.586080 0.265491
vt 0.554823 0.234234
vt 0.586080 0.265461
vt 0.554823 0.234203
vt 0.593895 0.242018
vt 0.586080 0.234203
vt 0.593895 0.304533
vt 0.593895 0.320161
vt 0.593895 0.242048
vt 0.586080 0.234234
vt 0.554823 0.296688
vt 0.421978 0.273275
vt 0.437607 0.335760
vt 0.421978 0.273306
vt 0.421978 0.335791
vt 0.586080 0.296719
vt 0.593895 0.304503
vt 0.593895 0.257646
vt 0.593895 0.257677
vt 0.617161 0.307411
vt 0.617179 0.317221
vt 0.617161 0.254769
vt 0.617179 0.244929
vt 0.617189 0.254735
vt 0.617189 0.307445
vt 0.617192 0.317249
vt 0.562500 0.296875
vt 0.554688 0.289062
vt 0.562500 0.289062
vt 0.617192 0.244960
vt 0.554688 0.296875
s 1
f 1/1/1 2/2/1 3/3/1
f 4/4/2 5/5/2 6/6/2
f 7/7/3 6/6/3 5/5/3
f 8/8/4 9/9/4 10/10/4
f 2/11/5 5/12/5 3/13/5
f 10/10/6 1/1/6 6/14/6
f 11/15/6 12/16/6 8/8/6
f 13/17/4 10/18/4 7/7/4
f 14/19/4 9/9/4 12/20/4
f 14/21/4 7/22/4 2/11/4
f 15/23/4 11/15/4 16/24/4
f 11/25/3 13/17/3 16/26/3
f 15/27/5 13/28/5 14/21/5
f 17/29/1 14/19/1 12/20/1
f 18/30/1 19/31/1 20/32/1
f 21/33/2 3/13/2 5/12/2
f 19/34/2 6/14/2 1/1/2
f 19/31/2 3/3/2 20/32/2
f 22/35/2 23/36/2 24/37/2
f 23/36/3 4/4/3 24/37/3
f 23/38/5 20/39/5 21/33/5
f 25/40/6 4/41/6 19/34/6
f 25/40/2 22/42/2 24/43/2
f 26/44/2 18/30/2 27/45/2
f 23/38/2 27/46/2 18/47/2
f 9/9/1 2/2/1 1/1/1
f 21/48/2 5/5/2 4/4/2
f 10/18/3 6/6/3 7/7/3
f 12/16/4 9/9/4 8/8/4
f 7/22/5 5/12/5 2/11/5
f 9/9/6 1/1/6 10/10/6
f 17/49/6 12/16/6 11/15/6
f 8/50/4 10/18/4 13/17/4
f 2/2/4 9/9/4 14/19/4
f 13/28/4 7/22/4 14/21/4
f 17/49/4 11/15/4 15/23/4
f 8/50/3 13/17/3 11/25/3
f 16/51/5 13/28/5 15/27/5
f 15/52/1 14/19/1 17/29/1
f 25/53/1 19/31/1 18/30/1
f 20/39/2 3/13/2 21/33/2
f 4/41/2 6/14/2 19/34/2
f 1/1/2 3/3/2 19/31/2
f 28/54/2 23/36/2 22/35/2
f 21/48/3 4/4/3 23/36/3
f 18/47/5 20/39/5 23/38/5
f 24/43/6 4/41/6 25/40/6
f 26/55/2 22/42/2 25/40/2
f 25/53/2 18/30/2 26/44/2
f 28/56/2 27/46/2 23/38/2
f 29/57/7 22/35/7 30/58/7
f 29/59/8 27/46/8 28/56/8
f 30/60/9 26/55/10 31/61/9
f 31/62/11 27/45/11 32/63/12
f 30/64/13 32/65/13 29/66/14
f 33/2/1 34/1/1 35/3/1
f 36/5/15 37/4/15 38/6/15
f 38/6/3 39/7/3 36/5/3
f 40/9/16 41/8/16 42/10/16
f 36/12/17 33/11/17 35/13/17
f 34/1/18 42/10/18 38/14/18
f 43/16/18 44/15/18 41/8/18
f 42/18/16 45/17/16 39/7/16
f 40/9/16 46/19/16 43/20/16
f 39/22/16 46/21/16 33/11/16
f 44/15/16 47/23/16 48/24/16
f 45/17/3 44/25/3 48/26/3
f 45/28/17 47/27/17 46/21/17
f 46/19/1 49/29/1 43/20/1
f 50/31/1 51/30/1 52/32/1
f 35/13/15 53/33/15 36/12/15
f 38/14/15 50/34/15 34/1/15
f 35/3/15 50/31/15 52/32/15
f 54/36/15 55/35/15 56/37/15
f 37/4/3 54/36/3 56/37/3
f 52/39/17 54/38/17 53/33/17
f 37/41/18 57/40/18 50/34/18
f 55/42/15 57/40/15 56/43/15
f 51/30/15 58/44/15 59/45/15
f 59/46/15 54/38/15 51/47/15
f 33/2/1 40/9/1 34/1/1
f 36/5/15 53/48/15 37/4/15
f 38/6/3 42/18/3 39/7/3
f 40/9/16 43/16/16 41/8/16
f 36/12/17 39/22/17 33/11/17
f 34/1/18 40/9/18 42/10/18
f 43/16/18 49/49/18 44/15/18
f 42/18/16 41/50/16 45/17/16
f 40/9/16 33/2/16 46/19/16
f 39/22/16 45/28/16 46/21/16
f 44/15/16 49/49/16 47/23/16
f 45/17/3 41/50/3 44/25/3
f 45/28/17 48/51/17 47/27/17
f 46/19/1 47/52/1 49/29/1
f 50/31/1 57/53/1 51/30/1
f 35/13/15 52/39/15 53/33/15
f 38/14/15 37/41/15 50/34/15
f 35/3/15 34/1/15 50/31/15
f 54/36/15 60/54/15 55/35/15
f 37/4/3 53/48/3 54/36/3
f 52/39/17 51/47/17 54/38/17
f 37/41/18 56/43/18 57/40/18
f 55/42/15 58/55/15 57/40/15
f 51/30/15 57/53/15 58/44/15
f 59/46/15 60/56/15 54/38/15
f 61/57/19 55/35/19 60/54/19
f 59/46/20 61/59/20 60/56/20
f 62/60/21 58/55/22 55/42/22
f 59/45/23 63/62/24 64/63/24
f 64/65/25 62/64/25 61/66/26
f 29/57/7 28/54/7 22/35/7
f 29/59/8 32/67/8 27/46/8
f 30/60/9 22/42/10 26/55/10
f 31/62/11 26/44/11 27/45/11
f 30/64/13 31/68/27 32/65/13
f 61/57/19 62/58/19 55/35/19
f 59/46/20 64/67/20 61/59/20
f 62/60/21 63/61/21 58/55/22
f 59/45/23 58/44/23 63/62/24
f 64/65/25 63/68/28 62/64/25
o Dome
v 0.092108 1.933013 0.343750
v 0.251642 1.933013 0.251642
v 0.000000 2.000000 -0.000000
v 0.159535 1.750000 0.595392
v 0.184215 1.500000 0.687500
v 0.435858 1.750000 0.435857
v 0.343750 1.933013 0.092107
v 0.503285 1.500000 0.503285
v 0.595392 1.750000 0.159535
v 0.343750 1.933013 -0.092108
v 0.687500 1.500000 0.184215
v 0.595392 1.750000 -0.159535
v 0.251642 1.933013 -0.251643
v 0.687500 1.500000 -0.184215
v 0.435858 1.750000 -0.435858
v 0.092108 1.933013 -0.343750
v 0.503285 1.500000 -0.503285
v 0.159535 1.750000 -0.595393
v -0.092108 1.933013 -0.343750
v 0.184215 1.500000 -0.687500
v -0.159535 1.750000 -0.595393
v -0.251642 1.933013 -0.251643
v -0.184215 1.500000 -0.687500
v -0.435858 1.750000 -0.435858
v -0.343750 1.933013 -0.092108
v -0.503285 1.500000 -0.503285
v -0.595392 1.750000 -0.159535
v -0.343750 1.933013 0.092107
v -0.687500 1.500000 -0.184215
v -0.595392 1.750000 0.159535
v -0.251642 1.933013 0.251642
v -0.687500 1.500000 0.184215
v -0.435858 1.750000 0.435857
v -0.092108 1.933013 0.343750
v -0.503285 1.500000 0.503285
v -0.159535 1.750000 0.595392
v -0.184215 1.500000 0.687500
v 0.503285 1.000000 0.503285
v 0.184215 1.500000 0.687500
v 0.184215 1.000000 0.687500
v 0.395218 1.500000 0.395218
v 0.144660 1.000000 0.539877
v 0.144660 1.500000 0.539877
v 0.503285 1.500000 0.503285
v 0.687500 1.000000 0.184215
v 0.539877 1.500000 0.144660
v 0.395218 1.000000 0.395218
v 0.687500 1.500000 0.184215
v 0.687500 1.000000 -0.184215
v 0.539877 1.500000 -0.144660
v 0.539877 1.000000 0.144660
v 0.687500 1.500000 -0.184215
v 0.503285 1.000000 -0.503285
v 0.395218 1.500000 -0.395218
v 0.539877 1.000000 -0.144660
v 0.503285 1.500000 -0.503285
v 0.184215 1.000000 -0.687500
v 0.144660 1.500000 -0.539877
v 0.395218 1.000000 -0.395218
v 0.184215 1.500000 -0.687500
v -0.184215 1.000000 -0.687500
v -0.144660 1.500000 -0.539877
v 0.144660 1.000000 -0.539877
v -0.184215 1.500000 -0.687500
v -0.503285 1.000000 -0.503285
v -0.395218 1.500000 -0.395218
v -0.144660 1.000000 -0.539877
v -0.503285 1.500000 -0.503285
v -0.687500 1.000000 -0.184215
v -0.539877 1.500000 -0.144660
v -0.395218 1.000000 -0.395218
v -0.687500 1.500000 -0.184215
v -0.687500 1.000000 0.184215
v -0.539877 1.500000 0.144660
v -0.539877 1.000000 -0.144660
v -0.687500 1.500000 0.184215
v -0.503285 1.000000 0.503285
v -0.395218 1.500000 0.395218
v -0.539877 1.000000 0.144660
v -0.503285 1.500000 0.503285
v -0.184215 1.000000 0.687500
v -0.144660 1.500000 0.539877
v -0.395218 1.000000 0.395218
v -0.184215 1.500000 0.687500
v -0.144660 1.000000 0.539877
v 0.503285 1.437500 0.503285
v 0.144660 1.437500 0.539877
v 0.184215 1.437500 0.687500
v 0.687500 1.437500 0.184215
v 0.395218 1.437500 0.395218
v 0.687500 1.437500 -0.184215
v 0.539877 1.437500 0.144660
v 0.503285 1.437500 -0.503285
v 0.539877 1.437500 -0.144660
v 0.184215 1.437500 -0.687500
v 0.395218 1.437500 -0.395218
v -0.184215 1.437500 -0.687500
v 0.144660 1.437500 -0.539877
v -0.503285 1.437500 -0.503285
v -0.144660 1.437500 -0.539877
v -0.687500 1.437500 -0.184215
v -0.395218 1.437500 -0.395218
v -0.687500 1.437500 0.184215
v -0.539877 1.437500 -0.144660
v -0.503285 1.437500 0.503285
v -0.539877 1.437500 0.144660
v -0.184215 1.437500 0.687500
v -0.395218 1.437500 0.395218
v -0.144660 1.437500 0.539877
vn 0.0956 0.9815 0.1656
vn 0.2941 0.8087 0.5094
vn 0.4692 0.3457 0.8126
vn 0.1656 0.9815 0.0956
vn 0.5094 0.8087 0.2941
vn 0.8126 0.3457 0.4692
vn 0.1913 0.9815 -0.0000
vn 0.5882 0.8087 -0.0000
vn 0.9383 0.3457 -0.0000
vn 0.1656 0.9815 -0.0956
vn 0.5094 0.8087 -0.2941
vn 0.8126 0.3457 -0.4692
vn 0.0956 0.9815 -0.1656
vn 0.2941 0.8087 -0.5094
vn 0.4692 0.3457 -0.8126
vn -0.0000 0.9815 -0.1913
vn -0.0000 0.8087 -0.5882
vn -0.0000 0.3457 -0.9383
vn -0.0956 0.9815 -0.1656
vn -0.2941 0.8087 -0.5094
vn -0.4692 0.3457 -0.8126
vn -0.1656 0.9815 -0.0956
vn -0.5094 0.8087 -0.2941
vn -0.8126 0.3457 -0.4692
vn -0.1913 0.9815 -0.0000
vn -0.5882 0.8087 -0.0000
vn -0.9383 0.3457 -0.0000
vn -0.1656 0.9815 0.0956
vn -0.5094 0.8087 0.2941
vn -0.8126 0.3457 0.4692
vn -0.0956 0.9815 0.1656
vn -0.2941 0.8087 0.5094
vn -0.4692 0.3457 0.8126
vn -0.0000 0.9815 0.1913
vn -0.0000 0.8087 0.5882
vn -0.0000 0.3457 0.9383
vn 0.5000 -0.0000 0.8660
vn -0.5000 -0.0000 -0.8660
vn -0.0000 1.0000 -0.0000
vn 0.8660 -0.0000 0.5000
vn -0.8660 -0.0000 -0.5000
vn 1.0000 -0.0000 -0.0000
vn -1.0000 -0.0000 -0.0000
vn 0.8660 -0.0000 -0.5000
vn -0.8660 -0.0000 0.5000
vn 0.5000 -0.0000 -0.8660
vn -0.5000 -0.0000 0.8660
vn -0.0000 -0.0000 -1.0000
vn -0.0000 -0.0000 1.0000
vt 0.105389 0.861656
vt 0.125436 0.872984
vt 0.093876 0.905433
vt 0.050072 0.768335
vt 0.081527 0.807229
vt 0.058501 0.807229
vt 0.047702 0.735193
vt 0.090671 0.768496
vt 0.050786 0.768496
vt 0.137317 0.892709
vt 0.050507 0.768731
vt 0.081962 0.807625
vt 0.058936 0.807625
vt 0.047651 0.735193
vt 0.090620 0.768496
vt 0.050736 0.768496
vt 0.137956 0.915727
vt 0.050502 0.768310
vt 0.081958 0.807205
vt 0.058931 0.807205
vt 0.047286 0.735153
vt 0.090255 0.768456
vt 0.050370 0.768456
vt 0.127188 0.936081
vt 0.050521 0.768492
vt 0.081976 0.807387
vt 0.058949 0.807387
vt 0.046921 0.735193
vt 0.089889 0.768496
vt 0.050005 0.768496
vt 0.103113 0.950066
vt 0.050197 0.768223
vt 0.082186 0.807117
vt 0.058769 0.807117
vt 0.047060 0.734919
vt 0.090758 0.768223
vt 0.102942 0.949782
vt 0.079951 0.948504
vt 0.050370 0.768490
vt 0.081826 0.807385
vt 0.058799 0.807385
vt 0.047286 0.735187
vt 0.090255 0.768490
vt 0.060563 0.936081
vt 0.050596 0.768223
vt 0.082052 0.807117
vt 0.059025 0.807117
vt 0.047512 0.734919
vt 0.090481 0.768223
vt 0.049796 0.915727
vt 0.050078 0.768675
vt 0.081534 0.807570
vt 0.058507 0.807570
vt 0.046870 0.735193
vt 0.089839 0.768496
vt 0.049954 0.768496
vt 0.050435 0.892709
vt 0.050577 0.768606
vt 0.082033 0.807500
vt 0.059006 0.807500
vt 0.062315 0.872984
vt 0.050243 0.768991
vt 0.081698 0.807885
vt 0.058672 0.807885
vt 0.082363 0.861656
vt 0.050642 0.768441
vt 0.082097 0.807336
vt 0.059071 0.807336
vt 0.050496 0.768074
vt 0.081952 0.806968
vt 0.058925 0.806968
vt 0.093298 0.671875
vt 0.047245 0.734375
vt 0.047245 0.671875
vt 0.048095 0.671875
vt 0.084261 0.609375
vt 0.084261 0.671875
vt 0.153536 0.843339
vt 0.108708 0.838766
vt 0.113652 0.820312
vt 0.093380 0.671875
vt 0.047327 0.734375
vt 0.047327 0.671875
vt 0.047770 0.671875
vt 0.083936 0.609375
vt 0.083936 0.671875
vt 0.176563 0.883223
vt 0.140027 0.856848
vt 0.093339 0.671875
vt 0.047286 0.734375
vt 0.047286 0.671875
vt 0.047542 0.671875
vt 0.083708 0.609375
vt 0.083708 0.671875
vt 0.176563 0.929277
vt 0.158109 0.888167
vt 0.153536 0.969161
vt 0.158109 0.924333
vt 0.113652 0.992188
vt 0.140027 0.955652
vt 0.067598 0.992188
vt 0.108708 0.973734
vt 0.027714 0.969161
vt 0.072542 0.973734
vt 0.004688 0.929277
vt 0.041223 0.955652
vt 0.004688 0.883223
vt 0.023141 0.924333
vt 0.027714 0.843339
vt 0.023141 0.888167
vt 0.067598 0.820312
vt 0.041223 0.856848
vt 0.072542 0.838766
vt 0.089956 0.768335
vt 0.093755 0.735193
vt 0.090391 0.768731
vt 0.093704 0.735193
vt 0.090387 0.768310
vt 0.093339 0.735153
vt 0.090405 0.768492
vt 0.092974 0.735193
vt 0.093894 0.734919
vt 0.093339 0.735187
vt 0.093565 0.734919
vt 0.089963 0.768675
vt 0.092923 0.735193
vt 0.090462 0.768606
vt 0.090127 0.768991
vt 0.090526 0.768441
vt 0.090381 0.768074
vt 0.093298 0.734375
vt 0.048095 0.609375
vt 0.093380 0.734375
vt 0.047770 0.609375
vt 0.093339 0.734375
vt 0.047542 0.609375
s 1
f 65/69/29 66/70/29 67/71/29
f 68/72/30 66/73/30 65/74/30
f 69/75/31 70/76/31 68/77/31
f 66/70/32 71/78/32 67/71/32
f 70/79/33 71/80/33 66/81/33
f 72/82/34 73/83/34 70/84/34
f 71/78/35 74/85/35 67/71/35
f 73/86/36 74/87/36 71/88/36
f 75/89/37 76/90/37 73/91/37
f 74/85/38 77/92/38 67/71/38
f 76/93/39 77/94/39 74/95/39
f 78/96/40 79/97/40 76/98/40
f 77/92/41 80/99/41 67/71/41
f 79/100/42 80/101/42 77/102/42
f 81/103/43 82/104/43 79/100/43
f 80/105/44 83/106/44 67/71/44
f 82/107/45 83/108/45 80/109/45
f 84/110/46 85/111/46 82/107/46
f 83/106/47 86/112/47 67/71/47
f 85/113/48 86/114/48 83/115/48
f 87/116/49 88/117/49 85/113/49
f 86/112/50 89/118/50 67/71/50
f 88/119/51 89/120/51 86/121/51
f 90/122/52 91/123/52 88/124/52
f 89/118/53 92/125/53 67/71/53
f 91/126/54 92/127/54 89/128/54
f 93/89/55 94/90/55 91/91/55
f 92/125/56 95/129/56 67/71/56
f 94/130/57 95/131/57 92/132/57
f 96/96/58 97/97/58 94/98/58
f 95/129/59 98/133/59 67/71/59
f 97/134/60 98/135/60 95/136/60
f 99/82/61 100/83/61 97/84/61
f 98/133/62 65/69/62 67/71/62
f 100/137/63 65/138/63 98/139/63
f 101/89/64 68/90/64 100/91/64
f 102/140/65 103/141/65 104/142/65
f 105/143/66 106/144/66 107/145/66
f 108/146/67 107/147/67 103/148/67
f 109/149/68 108/150/68 102/151/68
f 110/152/69 111/153/69 105/154/69
f 112/155/67 105/156/67 108/146/67
f 113/157/70 112/158/70 109/159/70
f 114/160/71 115/161/71 110/162/71
f 116/163/67 110/164/67 112/155/67
f 117/140/72 116/141/72 113/142/72
f 118/143/73 119/144/73 114/145/73
f 120/165/67 114/166/67 116/163/67
f 121/149/74 120/150/74 117/151/74
f 122/152/75 123/153/75 118/154/75
f 124/167/67 118/168/67 120/165/67
f 125/157/76 124/158/76 121/159/76
f 126/160/77 127/161/77 122/162/77
f 128/169/67 122/170/67 124/167/67
f 129/140/66 128/141/66 125/142/66
f 130/143/65 131/144/65 126/145/65
f 132/171/67 126/172/67 128/169/67
f 133/149/69 132/150/69 129/151/69
f 134/152/68 135/153/68 130/154/68
f 136/173/67 130/174/67 132/171/67
f 137/157/71 136/158/71 133/159/71
f 138/160/70 139/161/70 134/162/70
f 140/175/67 134/176/67 136/173/67
f 141/140/73 140/141/73 137/142/73
f 142/143/72 143/144/72 138/145/72
f 144/177/67 138/178/67 140/175/67
f 145/149/75 144/150/75 141/151/75
f 146/152/74 147/153/74 142/154/74
f 148/179/67 142/180/67 144/177/67
f 104/157/77 148/158/77 145/159/77
f 107/160/76 149/161/76 146/162/76
f 103/148/67 146/181/67 148/179/67
f 150/146/67 151/147/67 152/148/67
f 153/155/67 154/156/67 150/146/67
f 155/163/67 156/164/67 153/155/67
f 157/165/67 158/166/67 155/163/67
f 159/167/67 160/168/67 157/165/67
f 161/169/67 162/170/67 159/167/67
f 163/171/67 164/172/67 161/169/67
f 165/173/67 166/174/67 163/171/67
f 167/175/67 168/176/67 165/173/67
f 169/177/67 170/178/67 167/175/67
f 171/179/67 172/180/67 169/177/67
f 152/148/67 173/181/67 171/179/67
f 68/72/30 70/182/30 66/73/30
f 69/75/31 72/183/31 70/76/31
f 70/79/33 73/184/33 71/80/33
f 72/82/34 75/185/34 73/83/34
f 73/86/36 76/186/36 74/87/36
f 75/89/37 78/187/37 76/90/37
f 76/93/39 79/188/39 77/94/39
f 78/96/40 81/189/40 79/97/40
f 79/100/42 82/104/42 80/101/42
f 81/103/43 84/190/43 82/104/43
f 82/107/45 85/111/45 83/108/45
f 84/110/46 87/191/46 85/111/46
f 85/113/48 88/117/48 86/114/48
f 87/116/49 90/192/49 88/117/49
f 88/119/51 91/193/51 89/120/51
f 90/122/52 93/194/52 91/123/52
f 91/126/54 94/195/54 92/127/54
f 93/89/55 96/187/55 94/90/55
f 94/130/57 97/196/57 95/131/57
f 96/96/58 99/189/58 97/97/58
f 97/134/60 100/197/60 98/135/60
f 99/82/61 101/185/61 100/83/61
f 100/137/63 68/198/63 65/138/63
f 101/89/64 69/187/64 68/90/64
f 102/140/65 108/199/65 103/141/65
f 105/143/66 111/200/66 106/144/66
f 108/146/67 105/156/67 107/147/67
f 109/149/68 112/201/68 108/150/68
f 110/152/69 115/202/69 111/153/69
f 112/155/67 110/164/67 105/156/67
f 113/157/70 116/203/70 112/158/70
f 114/160/71 119/204/71 115/161/71
f 116/163/67 114/166/67 110/164/67
f 117/140/72 120/199/72 116/141/72
f 118/143/73 123/200/73 119/144/73
f 120/165/67 118/168/67 114/166/67
f 121/149/74 124/201/74 120/150/74
f 122/152/75 127/202/75 123/153/75
f 124/167/67 122/170/67 118/168/67
f 125/157/76 128/203/76 124/158/76
f 126/160/77 131/204/77 127/161/77
f 128/169/67 126/172/67 122/170/67
f 129/140/66 132/199/66 128/141/66
f 130/143/65 135/200/65 131/144/65
f 132/171/67 130/174/67 126/172/67
f 133/149/69 136/201/69 132/150/69
f 134/152/68 139/202/68 135/153/68
f 136/173/67 134/176/67 130/174/67
f 137/157/71 140/203/71 136/158/71
f 138/160/70 143/204/70 139/161/70
f 140/175/67 138/178/67 134/176/67
f 141/140/73 144/199/73 140/141/73
f 142/143/72 147/200/72 143/144/72
f 144/177/67 142/180/67 138/178/67
f 145/149/75 148/201/75 144/150/75
f 146/152/74 149/202/74 147/153/74
f 148/179/67 146/181/67 142/180/67
f 104/157/77 103/203/77 148/158/77
f 107/160/76 106/204/76 149/161/76
f 103/148/67 107/147/67 146/181/67
f 150/146/67 154/156/67 151/147/67
f 153/155/67 156/164/67 154/156/67
f 155/163/67 158/166/67 156/164/67
f 157/165/67 160/168/67 158/166/67
f 159/167/67 162/170/67 160/168/67
f 161/169/67 164/172/67 162/170/67
f 163/171/67 166/174/67 164/172/67
f 165/173/67 168/176/67 166/174/67
f 167/175/67 170/178/67 168/176/67
f 169/177/67 172/180/67 170/178/67
f 171/179/67 173/181/67 172/180/67
f 152/148/67 151/147/67 173/181/67
o Main
v -1.000000 -0.000000 -1.500000
v 1.000000 0.000000 1.500000
v -1.000000 0.000000 1.500000
v 1.000000 0.125000 -1.500000
v 0.875000 0.125000 1.375000
v 1.000000 0.125000 1.500000
v 1.000000 -0.000000 -1.500000
v -1.000000 0.125000 -1.500000
v -1.000000 0.125000 1.500000
v 1.000000 0.875000 1.500000
v 0.875000 0.875000 -1.375000
v 1.000000 0.875000 -1.500000
v 1.000000 1.000000 1.500000
v -1.000000 1.000000 -1.500000
v -1.000000 1.000000 1.500000
v -1.000000 0.875000 1.500000
v -1.000000 0.875000 -1.500000
v 1.000000 1.000000 -1.500000
v 0.875000 0.125000 -1.375000
v 0.875000 0.875000 1.375000
v -0.875000 0.125000 -1.375000
v -0.875000 0.125000 1.375000
v -0.875000 0.875000 -1.375000
v -0.875000 0.875000 1.375000
v 0.750000 2.000000 1.125000
v -0.750000 2.000000 0.875000
v -0.750000 2.000000 1.125000
v 0.500000 1.125000 0.500000
v -0.500000 1.125000 -0.500000
v -0.500000 1.125000 0.500000
v 0.500000 1.000000 -0.500000
v 0.500000 1.000000 0.500000
v -0.500000 1.000000 0.500000
v -0.500000 1.000000 -0.500000
v 0.500000 1.125000 -0.500000
v 0.750000 1.000000 0.875000
v 0.750000 2.000000 0.875000
v -0.750000 1.000000 1.125000
v -0.500000 1.750000 0.875000
v 0.500000 1.750000 1.125000
v -0.500000 1.750000 1.125000
v 0.500000 1.750000 0.875000
v 0.500000 1.000000 1.125000
v -0.500000 1.000000 0.875000
v -0.750000 1.000000 0.875000
v 0.750000 1.000000 1.125000
v 0.750000 2.000000 -0.875000
v -0.750000 2.000000 -1.125000
v -0.750000 2.000000 -0.875000
v 0.750000 1.000000 -1.125000
v 0.750000 2.000000 -1.125000
v -0.750000 1.000000 -0.875000
v -0.500000 1.750000 -1.125000
v 0.500000 1.750000 -0.875000
v -0.500000 1.750000 -0.875000
v 0.500000 1.750000 -1.125000
v 0.500000 1.000000 -0.875000
v -0.500000 1.000000 -1.125000
v -0.750000 1.000000 -1.125000
v 0.750000 1.000000 -0.875000
v -0.250000 2.062500 1.281250
v -0.187500 2.062500 1.343750
v -0.250000 2.062500 1.343750
v 0.375000 1.000000 1.437500
v 0.375000 1.000000 1.062500
v 0.375000 1.250000 1.125000
v -0.187500 2.125000 1.281250
v -0.187500 2.062500 1.281250
v -0.312500 1.000000 1.281250
v -0.250000 1.000000 1.281250
v -0.375000 1.187500 1.437500
v -0.375000 1.000000 1.437500
v -0.375000 1.000000 1.062500
v 0.375000 1.187500 1.062500
v -0.375000 1.250000 1.375000
v -0.375000 1.250000 1.125000
v 0.375000 1.187500 1.437500
v -0.375000 1.187500 1.062500
v -0.312500 1.000000 1.343750
v -0.312500 2.062500 1.281250
v -0.250000 1.000000 1.343750
v -0.312500 2.062500 1.343750
v -0.250000 2.125000 1.343750
v -0.187500 2.125000 1.343750
v -0.250000 2.125000 1.281250
v 0.375000 1.000000 -1.062500
v 0.375000 1.000000 -1.437500
v 0.375000 1.250000 -1.375000
v -0.375000 1.187500 -1.062500
v -0.375000 1.000000 -1.062500
v -0.375000 1.000000 -1.437500
v 0.375000 1.187500 -1.437500
v -0.375000 1.250000 -1.125000
v -0.375000 1.250000 -1.375000
v 0.375000 1.187500 -1.062500
v -0.375000 1.187500 -1.437500
v -0.250000 2.062500 -1.343750
v -0.187500 2.062500 -1.281250
v -0.250000 2.062500 -1.281250
v -0.187500 2.125000 -1.343750
v -0.187500 2.062500 -1.343750
v -0.312500 1.000000 -1.343750
v -0.250000 1.000000 -1.343750
v -0.312500 1.000000 -1.281250
v -0.312500 2.062500 -1.343750
v -0.250000 1.000000 -1.281250
v -0.312500 2.062500 -1.281250
v -0.250000 2.125000 -1.281250
v -0.187500 2.125000 -1.281250
v -0.250000 2.125000 -1.343750
v 0.875000 1.250000 0.750000
v 0.750000 1.250000 -0.750000
v 0.750000 1.250000 0.750000
v 0.875000 1.250000 -0.750000
v 0.750000 1.000000 -0.750000
v 0.875000 1.000000 0.750000
v 0.875000 1.124000 -0.625000
v 0.750000 1.124000 0.625000
v 0.750000 1.124000 -0.625000
v 0.875000 1.124000 0.625000
v 0.750000 0.999000 0.625000
v 0.875000 0.999000 -0.625000
v 0.875000 1.000000 -0.750000
v 0.750000 1.000000 0.750000
v -0.750000 1.250000 0.750000
v -0.875000 1.250000 -0.750000
v -0.875000 1.250000 0.750000
v -0.750000 1.250000 -0.750000
v -0.875000 1.000000 -0.750000
v -0.750000 1.000000 0.750000
v -0.750000 1.124000 -0.625000
v -0.875000 1.124000 0.625000
v -0.875000 1.124000 -0.625000
v -0.750000 1.124000 0.625000
v -0.875000 0.999000 0.625000
v -0.750000 0.999000 -0.625000
v -0.750000 1.000000 -0.750000
v -0.875000 1.000000 0.750000
v -0.687500 0.312500 1.500000
v -0.312500 0.687500 1.500000
v -0.687500 0.687500 1.500000
v 0.312500 0.312500 1.500000
v 0.687500 0.687500 1.500000
v 0.312500 0.687500 1.500000
v -0.312500 0.312500 1.500000
v -0.312500 0.687500 1.375000
v -0.687500 0.312500 1.375000
v -0.312500 0.312500 1.375000
v -0.687500 0.687500 1.375000
v 0.687500 0.312500 1.500000
v 0.687500 0.687500 1.375000
v 0.312500 0.312500 1.375000
v 0.687500 0.312500 1.375000
v 0.312500 0.687500 1.375000
v 0.687500 0.312500 -1.500000
v 0.312500 0.687500 -1.500000
v 0.687500 0.687500 -1.500000
v -0.312500 0.312500 -1.500000
v -0.687500 0.687500 -1.500000
v -0.312500 0.687500 -1.500000
v 0.312500 0.312500 -1.500000
v 0.312500 0.687500 -1.375000
v 0.687500 0.312500 -1.375000
v 0.312500 0.312500 -1.375000
v 0.687500 0.687500 -1.375000
v -0.687500 0.312500 -1.500000
v -0.687500 0.687500 -1.375000
v -0.312500 0.312500 -1.375000
v -0.687500 0.312500 -1.375000
v -0.312500 0.687500 -1.375000
v 1.000000 0.312500 1.187500
v 1.000000 0.687500 0.812500
v 1.000000 0.687500 1.187500
v 1.000000 0.312500 0.187500
v 1.000000 0.687500 -0.187500
v 1.000000 0.687500 0.187500
v 1.000000 0.312500 0.812500
v 0.875000 0.687500 0.812500
v 0.875000 0.312500 1.187500
v 0.875000 0.312500 0.812500
v 0.875000 0.687500 1.187500
v 1.000000 0.312500 -0.187500
v 0.875000 0.687500 -0.187500
v 0.875000 0.312500 0.187500
v 0.875000 0.312500 -0.187500
v 0.875000 0.687500 0.187500
v -1.000000 0.312500 -0.187500
v -1.000000 0.687500 0.187500
v -1.000000 0.687500 -0.187500
v -1.000000 0.312500 0.812500
v -1.000000 0.687500 1.187500
v -1.000000 0.687500 0.812500
v -1.000000 0.312500 0.187500
v -0.875000 0.687500 0.187500
v -0.875000 0.312500 -0.187500
v -0.875000 0.312500 0.187500
v -0.875000 0.687500 -0.187500
v -1.000000 0.312500 1.187500
v -0.875000 0.687500 1.187500
v -0.875000 0.312500 0.812500
v -0.875000 0.312500 1.187500
v -0.875000 0.687500 0.812500
v 1.000000 0.312500 -0.812500
v 1.000000 0.687500 -1.187500
v 1.000000 0.687500 -0.812500
v 1.000000 0.312500 -1.187500
v 0.875000 0.687500 -1.187500
v 0.875000 0.312500 -0.812500
v 0.875000 0.312500 -1.187500
v 0.875000 0.687500 -0.812500
v -1.000000 0.312500 -1.187500
v -1.000000 0.687500 -0.812500
v -1.000000 0.687500 -1.187500
v -1.000000 0.312500 -0.812500
v -0.875000 0.687500 -0.812500
v -0.875000 0.312500 -1.187500
v -0.875000 0.312500 -0.812500
v -0.875000 0.687500 -1.187500
v 0.500000 1.000000 0.875000
v -0.500000 1.000000 1.125000
v 0.500000 1.000000 -1.125000
v -0.500000 1.000000 -0.875000
v 0.375000 1.250000 1.375000
v 0.375000 1.250000 -1.125000
v 0.875000 0.999000 0.625000
v 0.750000 0.999000 -0.625000
v -0.750000 0.999000 0.625000
v -0.875000 0.999000 -0.625000
vn -0.0000 -1.0000 -0.0000
vn -0.0000 1.0000 -0.0000
vn 1.0000 -0.0000 -0.0000
vn -1.0000 -0.0000 -0.0000
vn -0.0000 -0.0000 -1.0000
vn -0.0000 -0.0000 1.0000
vn -0.0000 0.7071 0.7071
vn -0.0000 0.7071 -0.7071
vn -0.7071 0.7071 -0.0000
vt 0.375091 0.218559
vt 0.000000 0.468621
vt 0.000000 0.218559
vt 0.375091 0.484249
vt 0.015629 0.499878
vt 0.000000 0.484249
vt 0.375091 0.468621
vt 0.625153 0.468621
vt 0.000000 0.609280
vt 0.359462 0.593650
vt 0.375091 0.609280
vt 0.000000 0.624909
vt 0.375091 0.874969
vt 0.000000 0.874969
vt 0.625153 0.609280
vt 0.375091 0.624909
vt 0.359462 0.499878
vt 0.015629 0.593650
vt 0.625153 0.484249
vt 0.390721 0.499878
vt 0.609524 0.499878
vt 0.390721 0.593650
vt 0.609524 0.593650
vt 0.312576 0.906227
vt 0.125031 0.937485
vt 0.125031 0.906227
vt 0.390721 0.640538
vt 0.515750 0.765567
vt 0.390721 0.765567
vt 0.515750 0.624909
vt 0.390721 0.624909
vt 0.390721 0.781197
vt 0.515750 0.781197
vt 0.531379 0.765567
vt 0.515750 0.640538
vt 0.531379 0.640538
vt 0.375091 0.640538
vt 0.375091 0.765567
vt 0.437607 0.937485
vt 0.312576 0.937485
vt 0.000000 0.906227
vt 0.156288 0.968743
vt 0.281319 0.874969
vt 0.281319 1.000000
vt 0.156288 1.000000
vt 0.343834 0.968743
vt 0.437607 1.000000
vt 0.343834 1.000000
vt 0.093773 1.000000
vt 0.000000 0.968743
vt 0.093773 0.968743
vt 0.000000 0.937485
vt 0.093773 0.874969
vt 0.343834 0.874969
vt 0.437607 0.906227
vt 0.656410 0.609280
vt 0.648596 0.617094
vt 0.648596 0.609280
vt 0.476679 0.781197
vt 0.523565 0.781197
vt 0.515750 0.812454
vt 0.632968 0.617094
vt 0.625153 0.617094
vt 0.632968 0.468621
vt 0.625153 0.601465
vt 0.453236 0.812454
vt 0.476679 0.906227
vt 0.453236 0.906227
vt 0.547009 0.906227
vt 0.523565 0.812454
vt 0.547009 0.812454
vt 0.484493 0.906227
vt 0.515750 0.906227
vt 0.476679 0.812454
vt 0.523565 0.906227
vt 0.640781 0.468621
vt 0.632968 0.601465
vt 0.523565 0.937485
vt 0.648596 0.468621
vt 0.640781 0.601465
vt 0.656410 0.468621
vt 0.648596 0.601465
vt 0.640781 0.609280
vt 0.640781 0.617094
vt 0.632968 0.609280
vt 0.578266 0.656166
vt 0.562638 0.843712
vt 0.562638 0.656166
vt 0.578266 0.843712
vt 0.562638 0.874969
vt 0.578266 0.624909
vt 0.593895 0.828083
vt 0.547009 0.671795
vt 0.609524 0.671795
vt 0.609524 0.828083
vt 0.593895 0.640538
vt 0.609524 0.624909
vt 0.609524 0.640538
vt 0.609524 0.859341
vt 0.593895 0.874969
vt 0.593895 0.859341
vt 0.547009 0.859341
vt 0.578266 0.874969
vt 0.547009 0.640538
vt 0.562638 0.624909
vt 0.390721 0.796826
vt 0.437607 0.843712
vt 0.390721 0.843712
vt 0.437607 0.796826
vt 0.453236 0.843712
vt 0.375091 0.796826
vt 0.437607 0.781197
vt 0.390721 0.859341
vt 0.625153 0.624909
vt 0.281319 0.968743
vt 0.156288 0.874969
vt 0.437607 0.968743
vt 0.000000 1.000000
vt 0.437607 0.874969
vt 0.656410 0.617094
vt 0.523565 0.804640
vt 0.484493 0.812454
vt 0.476679 0.804640
vt 0.523565 0.914042
vt 0.476679 0.937485
vt 0.476679 0.914042
vt 0.656410 0.601465
vt 0.593895 0.671795
vt 0.547009 0.828083
vt 0.593895 0.624909
vt 0.609524 0.874969
vt 0.547009 0.874969
vt 0.547009 0.624909
vt 0.453236 0.796826
vt 0.375091 0.843712
vt 0.437607 0.859341
s 1
f 174/205/78 175/206/78 176/207/78
f 177/208/79 178/209/79 179/210/79
f 180/211/80 179/210/80 175/206/80
f 176/211/81 181/210/81 174/206/81
f 174/212/82 177/208/82 180/211/82
f 175/212/83 182/208/83 176/211/83
f 183/213/78 184/214/78 185/215/78
f 186/216/79 187/217/79 188/218/79
f 185/215/80 186/216/80 183/213/80
f 189/215/81 187/216/81 190/213/81
f 190/219/82 191/220/82 185/215/82
f 183/219/83 188/220/83 189/215/83
f 192/221/80 193/222/80 178/209/80
f 182/208/79 194/209/79 181/210/79
f 181/223/79 192/224/79 177/208/79
f 179/223/79 195/224/79 182/208/79
f 195/221/81 196/222/81 194/209/81
f 194/225/82 184/226/82 192/224/82
f 178/225/83 197/226/83 195/224/83
f 185/215/78 196/227/78 190/219/78
f 190/213/78 197/214/78 189/215/78
f 189/215/78 193/227/78 183/219/78
f 198/228/79 199/229/79 200/230/79
f 201/231/79 202/232/79 203/233/79
f 204/234/80 201/231/80 205/235/80
f 206/236/81 202/232/81 207/237/81
f 207/238/82 208/239/82 204/240/82
f 205/241/83 203/233/83 206/242/83
f 198/228/80 209/243/80 210/244/80
f 199/229/81 211/245/81 200/230/81
f 210/244/82 212/246/82 199/229/82
f 200/230/83 213/247/83 198/228/83
f 212/246/78 213/248/78 214/249/78
f 215/250/81 216/251/81 213/252/81
f 214/253/80 217/254/80 212/255/80
f 212/255/82 218/256/82 199/229/82
f 211/245/83 214/257/83 200/230/83
f 209/243/82 215/250/82 210/244/82
f 213/258/83 219/259/83 198/228/83
f 220/228/79 221/229/79 222/230/79
f 220/228/80 223/243/80 224/244/80
f 221/229/81 225/245/81 222/230/81
f 224/244/82 226/246/82 221/229/82
f 222/230/83 227/247/83 220/228/83
f 226/246/78 227/248/78 228/249/78
f 229/250/81 230/251/81 227/252/81
f 228/253/80 231/254/80 226/255/80
f 226/255/82 232/256/82 221/229/82
f 225/245/83 228/257/83 222/230/83
f 223/243/82 229/250/82 224/244/82
f 227/258/83 233/259/83 220/228/83
f 234/260/78 235/261/78 236/262/78
f 237/263/80 238/264/80 239/265/80
f 234/219/82 240/266/82 241/267/82
f 242/268/82 234/269/82 243/212/82
f 237/270/83 244/271/83 245/272/83
f 246/273/82 247/274/82 238/275/82
f 248/276/79 239/265/79 249/277/79
f 250/278/84 248/276/84 244/271/84
f 251/279/85 239/265/85 247/274/85
f 252/280/81 253/281/81 242/268/81
f 248/276/81 249/277/81 246/282/81
f 254/283/83 255/284/83 252/280/83
f 243/285/80 236/286/80 254/283/80
f 235/261/83 256/287/83 236/262/83
f 240/266/79 256/287/79 257/288/79
f 253/281/82 258/219/82 234/269/82
f 255/284/86 258/289/86 253/281/86
f 236/286/83 256/262/83 255/284/83
f 259/263/80 260/264/80 261/265/80
f 259/270/83 262/271/83 263/272/83
f 264/273/82 265/274/82 260/275/82
f 266/276/79 261/265/79 267/277/79
f 268/278/84 266/276/84 262/271/84
f 269/279/85 261/265/85 265/274/85
f 266/276/81 267/277/81 264/282/81
f 270/260/78 271/261/78 272/262/78
f 270/219/82 273/266/82 274/267/82
f 275/268/82 270/269/82 276/212/82
f 277/280/81 278/281/81 275/268/81
f 279/283/83 280/284/83 277/280/83
f 276/285/80 272/286/80 279/283/80
f 271/261/83 281/287/83 272/262/83
f 273/266/79 281/287/79 282/288/79
f 278/281/82 283/219/82 270/269/82
f 280/284/86 283/289/86 278/281/86
f 272/286/83 281/262/83 280/284/83
f 284/290/79 285/291/79 286/292/79
f 287/293/82 288/294/82 285/291/82
f 286/292/83 289/295/83 284/290/83
f 284/290/80 290/296/80 287/293/80
f 285/291/81 291/297/81 286/292/81
f 290/296/78 291/298/78 292/299/78
f 293/300/82 294/301/82 291/302/82
f 292/303/83 295/304/83 290/305/83
f 288/294/81 292/306/81 285/291/81
f 290/305/80 296/307/80 287/293/80
f 291/308/81 297/309/81 286/292/81
f 289/295/80 293/300/80 284/290/80
f 298/290/79 299/291/79 300/292/79
f 301/293/82 302/294/82 299/291/82
f 300/292/83 303/295/83 298/290/83
f 298/290/80 304/296/80 301/293/80
f 299/291/81 305/297/81 300/292/81
f 304/296/78 305/298/78 306/299/78
f 307/300/82 308/301/82 305/302/82
f 306/303/83 309/304/83 304/305/83
f 302/294/81 306/306/81 299/291/81
f 304/305/80 310/307/80 301/293/80
f 305/308/81 311/309/81 300/292/81
f 303/295/80 307/300/80 298/290/80
f 312/310/83 313/311/83 314/312/83
f 315/310/83 316/311/83 317/312/83
f 318/313/80 319/314/80 313/311/80
f 314/312/81 320/315/81 312/310/81
f 312/310/78 321/316/78 318/313/78
f 313/311/79 322/317/79 314/312/79
f 323/313/80 324/314/80 316/311/80
f 317/312/81 325/315/81 315/310/81
f 315/310/78 326/316/78 323/313/78
f 316/311/79 327/317/79 317/312/79
f 328/310/82 329/311/82 330/312/82
f 331/310/82 332/311/82 333/312/82
f 334/313/81 335/314/81 329/311/81
f 330/312/80 336/315/80 328/310/80
f 328/310/78 337/316/78 334/313/78
f 329/311/79 338/317/79 330/312/79
f 339/313/81 340/314/81 332/311/81
f 333/312/80 341/315/80 331/310/80
f 331/310/78 342/316/78 339/313/78
f 332/311/79 343/317/79 333/312/79
f 344/310/80 345/311/80 346/312/80
f 347/310/80 348/311/80 349/312/80
f 350/313/82 351/314/82 345/311/82
f 346/312/83 352/315/83 344/310/83
f 344/310/78 353/316/78 350/313/78
f 345/311/79 354/317/79 346/312/79
f 355/313/82 356/314/82 348/311/82
f 349/312/83 357/315/83 347/310/83
f 347/310/78 358/316/78 355/313/78
f 348/311/79 359/317/79 349/312/79
f 360/310/81 361/311/81 362/312/81
f 363/310/81 364/311/81 365/312/81
f 366/313/83 367/314/83 361/311/83
f 362/312/82 368/315/82 360/310/82
f 360/310/78 369/316/78 366/313/78
f 361/311/79 370/317/79 362/312/79
f 371/313/83 372/314/83 364/311/83
f 365/312/82 373/315/82 363/310/82
f 363/310/78 374/316/78 371/313/78
f 364/311/79 375/317/79 365/312/79
f 376/310/80 377/311/80 378/312/80
f 379/313/82 380/314/82 377/311/82
f 378/312/83 381/315/83 376/310/83
f 376/310/78 382/316/78 379/313/78
f 377/311/79 383/317/79 378/312/79
f 384/310/81 385/311/81 386/312/81
f 387/313/83 388/314/83 385/311/83
f 386/312/82 389/315/82 384/310/82
f 384/310/78 390/316/78 387/313/78
f 385/311/79 391/317/79 386/312/79
f 174/205/78 180/211/78 175/206/78
f 177/208/79 192/221/79 178/209/79
f 180/211/80 177/208/80 179/210/80
f 176/211/81 182/208/81 181/210/81
f 174/212/82 181/223/82 177/208/82
f 175/212/83 179/223/83 182/208/83
f 183/213/78 193/222/78 184/214/78
f 186/216/79 191/220/79 187/217/79
f 185/215/80 191/220/80 186/216/80
f 189/215/81 188/220/81 187/216/81
f 190/219/82 187/318/82 191/220/82
f 183/219/83 186/318/83 188/220/83
f 192/221/80 184/214/80 193/222/80
f 182/208/79 195/221/79 194/209/79
f 181/223/79 194/225/79 192/224/79
f 179/223/79 178/225/79 195/224/79
f 195/221/81 197/214/81 196/222/81
f 194/225/82 196/227/82 184/226/82
f 178/225/83 193/227/83 197/226/83
f 185/215/78 184/226/78 196/227/78
f 190/213/78 196/222/78 197/214/78
f 189/215/78 197/226/78 193/227/78
f 198/228/79 210/244/79 199/229/79
f 201/231/79 208/239/79 202/232/79
f 204/234/80 208/239/80 201/231/80
f 206/236/81 203/233/81 202/232/81
f 207/238/82 202/232/82 208/239/82
f 205/241/83 201/231/83 203/233/83
f 198/228/80 219/259/80 209/243/80
f 199/229/81 218/256/81 211/245/81
f 210/244/82 215/319/82 212/246/82
f 200/230/83 214/320/83 213/247/83
f 212/246/78 215/319/78 213/248/78
f 215/250/81 392/321/81 216/251/81
f 214/253/80 393/322/80 217/254/80
f 212/255/82 217/254/82 218/256/82
f 211/245/83 393/218/83 214/257/83
f 209/243/82 392/321/82 215/250/82
f 213/258/83 216/323/83 219/259/83
f 220/228/79 224/244/79 221/229/79
f 220/228/80 233/259/80 223/243/80
f 221/229/81 232/256/81 225/245/81
f 224/244/82 229/319/82 226/246/82
f 222/230/83 228/320/83 227/247/83
f 226/246/78 229/319/78 227/248/78
f 229/250/81 394/321/81 230/251/81
f 228/253/80 395/322/80 231/254/80
f 226/255/82 231/254/82 232/256/82
f 225/245/83 395/218/83 228/257/83
f 223/243/82 394/321/82 229/250/82
f 227/258/83 230/323/83 233/259/83
f 234/260/78 241/324/78 235/261/78
f 238/264/80 247/325/80 239/265/80
f 239/265/80 396/326/80 237/263/80
f 396/326/80 250/327/80 237/263/80
f 234/219/82 258/289/82 240/266/82
f 242/268/82 253/281/82 234/269/82
f 237/270/83 250/278/83 244/271/83
f 246/273/82 251/279/82 247/274/82
f 248/276/79 396/326/79 239/265/79
f 250/278/84 396/326/84 248/276/84
f 251/279/85 249/277/85 239/265/85
f 252/280/81 255/284/81 253/281/81
f 251/328/81 246/282/81 249/277/81
f 246/282/81 245/329/81 248/276/81
f 245/329/81 244/330/81 248/276/81
f 254/283/83 236/286/83 255/284/83
f 243/285/80 234/331/80 236/286/80
f 235/261/83 257/288/83 256/287/83
f 240/266/79 258/289/79 256/287/79
f 255/284/86 256/287/86 258/289/86
f 260/264/80 265/325/80 261/265/80
f 261/265/80 397/326/80 259/263/80
f 397/326/80 268/327/80 259/263/80
f 259/270/83 268/278/83 262/271/83
f 264/273/82 269/279/82 265/274/82
f 266/276/79 397/326/79 261/265/79
f 268/278/84 397/326/84 266/276/84
f 269/279/85 267/277/85 261/265/85
f 269/328/81 264/282/81 267/277/81
f 264/282/81 263/329/81 266/276/81
f 263/329/81 262/330/81 266/276/81
f 270/260/78 274/324/78 271/261/78
f 270/219/82 283/289/82 273/266/82
f 275/268/82 278/281/82 270/269/82
f 277/280/81 280/284/81 278/281/81
f 279/283/83 272/286/83 280/284/83
f 276/285/80 270/331/80 272/286/80
f 271/261/83 282/288/83 281/287/83
f 273/266/79 283/289/79 281/287/79
f 280/284/86 281/287/86 283/289/86
f 284/290/79 287/293/79 285/291/79
f 287/293/82 296/307/82 288/294/82
f 286/292/83 297/309/83 289/295/83
f 284/290/80 293/332/80 290/296/80
f 285/291/81 292/333/81 291/297/81
f 290/296/78 293/332/78 291/298/78
f 293/300/82 398/334/82 294/301/82
f 292/303/83 399/335/83 295/304/83
f 288/294/81 399/336/81 292/306/81
f 290/305/80 295/304/80 296/307/80
f 291/308/81 294/337/81 297/309/81
f 289/295/80 398/334/80 293/300/80
f 298/290/79 301/293/79 299/291/79
f 301/293/82 310/307/82 302/294/82
f 300/292/83 311/309/83 303/295/83
f 298/290/80 307/332/80 304/296/80
f 299/291/81 306/333/81 305/297/81
f 304/296/78 307/332/78 305/298/78
f 307/300/82 400/334/82 308/301/82
f 306/303/83 401/335/83 309/304/83
f 302/294/81 401/336/81 306/306/81
f 304/305/80 309/304/80 310/307/80
f 305/308/81 308/337/81 311/309/81
f 303/295/80 400/334/80 307/300/80
f 312/310/83 318/313/83 313/311/83
f 315/310/83 323/313/83 316/311/83
f 318/313/80 321/338/80 319/314/80
f 314/312/81 322/339/81 320/315/81
f 312/310/78 320/236/78 321/316/78
f 313/311/79 319/340/79 322/317/79
f 323/313/80 326/338/80 324/314/80
f 317/312/81 327/339/81 325/315/81
f 315/310/78 325/236/78 326/316/78
f 316/311/79 324/340/79 327/317/79
f 328/310/82 334/313/82 329/311/82
f 331/310/82 339/313/82 332/311/82
f 334/313/81 337/338/81 335/314/81
f 330/312/80 338/339/80 336/315/80
f 328/310/78 336/236/78 337/316/78
f 329/311/79 335/340/79 338/317/79
f 339/313/81 342/338/81 340/314/81
f 333/312/80 343/339/80 341/315/80
f 331/310/78 341/236/78 342/316/78
f 332/311/79 340/340/79 343/317/79
f 344/310/80 350/313/80 345/311/80
f 347/310/80 355/313/80 348/311/80
f 350/313/82 353/338/82 351/314/82
f 346/312/83 354/339/83 352/315/83
f 344/310/78 352/236/78 353/316/78
f 345/311/79 351/340/79 354/317/79
f 355/313/82 358/338/82 356/314/82
f 349/312/83 359/339/83 357/315/83
f 347/310/78 357/236/78 358/316/78
f 348/311/79 356/340/79 359/317/79
f 360/310/81 366/313/81 361/311/81
f 363/310/81 371/313/81 364/311/81
f 366/313/83 369/338/83 367/314/83
f 362/312/82 370/339/82 368/315/82
f 360/310/78 368/236/78 369/316/78
f 361/311/79 367/340/79 370/317/79
f 371/313/83 374/338/83 372/314/83
f 365/312/82 375/339/82 373/315/82
f 363/310/78 373/236/78 374/316/78
f 364/311/79 372/340/79 375/317/79
f 376/310/80 379/313/80 377/311/80
f 379/313/82 382/338/82 380/314/82
f 378/312/83 383/339/83 381/315/83
f 376/310/78 381/236/78 382/316/78
f 377/311/79 380/340/79 383/317/79
f 384/310/81 387/313/81 385/311/81
f 387/313/83 390/338/83 388/314/83
f 386/312/82 391/339/82 389/315/82
f 384/310/78 389/236/78 390/316/78
f 385/311/79 388/340/79 391/317/79
o Welder
v -0.250000 1.828848 -0.498227
v -0.250000 1.849455 -1.399379
v -0.250000 1.419272 -0.785015
v 0.125000 1.726454 -0.569924
v 0.250000 1.419272 -0.785015
v 0.250000 1.828848 -0.498227
v 0.250000 1.849455 -1.399379
v 0.187500 2.207834 -1.148439
v -0.250000 2.259031 -1.112591
v 0.250000 2.259031 -1.112591
v 0.187500 2.279531 -1.250834
v -0.187500 2.207834 -1.148439
v 0.187500 1.900652 -1.363531
v -0.187500 1.900652 -1.363531
v -0.187500 1.972349 -1.465925
v 0.187500 1.972349 -1.465925
v -0.187500 2.279531 -1.250834
v -0.125000 1.378272 -0.508530
v -0.125000 1.726454 -0.569924
v -0.125000 1.521666 -0.713318
v 0.125000 1.521666 -0.713318
v 0.062500 1.531863 -0.400984
v 0.125000 1.378272 -0.508530
v 0.125000 1.583060 -0.365136
v -0.125000 1.583060 -0.365136
v 0.000000 1.193878 -0.027257
v 0.062500 1.429469 -0.472682
v -0.062500 1.429469 -0.472682
v -0.062500 1.531863 -0.400984
v -0.250000 1.849455 1.399379
v -0.250000 1.828848 0.498227
v -0.250000 1.419272 0.785015
v 0.250000 1.419272 0.785015
v 0.125000 1.726454 0.569924
v 0.250000 1.828848 0.498227
v 0.250000 1.849455 1.399379
v -0.250000 2.259031 1.112591
v 0.187500 2.207834 1.148439
v 0.250000 2.259031 1.112591
v -0.187500 2.207834 1.148439
v 0.187500 2.279531 1.250834
v 0.187500 1.900652 1.363531
v -0.187500 1.900652 1.363531
v -0.187500 1.972349 1.465925
v 0.187500 1.972349 1.465925
v -0.187500 2.279531 1.250834
v -0.125000 1.726454 0.569924
v -0.125000 1.378272 0.508530
v -0.125000 1.521666 0.713318
v 0.125000 1.521666 0.713318
v 0.125000 1.378272 0.508530
v 0.062500 1.531863 0.400984
v 0.125000 1.583060 0.365136
v -0.125000 1.583060 0.365136
v 0.062500 1.429469 0.472682
v 0.000000 1.193878 0.027257
v -0.062500 1.429469 0.472682
v -0.062500 1.531863 0.400984
vn -1.0000 -0.0000 -0.0000
vn -0.0000 -0.5736 0.8192
vn 1.0000 -0.0000 -0.0000
vn -0.0000 0.5736 -0.8192
vn -0.0000 -0.8192 -0.5736
vn -0.0000 0.8192 0.5736
vn 0.9923 -0.0711 0.1016
vn -0.0000 -0.8840 -0.4675
vn -0.0000 0.7417 0.6708
vn -0.9923 -0.0711 0.1016
vn -0.0000 -0.5736 -0.8192
vn -0.0000 0.5736 0.8192
vn -0.0000 -0.8192 0.5736
vn -0.0000 0.8192 -0.5736
vn 0.9923 -0.0711 -0.1016
vn -0.0000 -0.8840 0.4675
vn -0.0000 0.7417 -0.6708
vn -0.9923 -0.0711 -0.1016
vt 0.539194 0.406090
vt 0.445421 0.468605
vt 0.539194 0.468605
vt 0.554823 0.390445
vt 0.539194 0.343559
vt 0.539194 0.406074
vt 0.445421 0.343559
vt 0.437607 0.351389
vt 0.445421 0.406090
vt 0.445421 0.343574
vt 0.445421 0.406105
vt 0.539194 0.468621
vt 0.539194 0.406105
vt 0.539194 0.343574
vt 0.421978 0.351389
vt 0.437607 0.398275
vt 0.437607 0.351373
vt 0.445421 0.406074
vt 0.437607 0.460791
vt 0.437607 0.413904
vt 0.437607 0.413920
vt 0.445421 0.468621
vt 0.375091 0.398275
vt 0.375091 0.351389
vt 0.421978 0.398260
vt 0.421978 0.351373
vt 0.421978 0.413920
vt 0.437607 0.460806
vt 0.421978 0.413904
vt 0.586080 0.452976
vt 0.554823 0.421719
vt 0.554823 0.452976
vt 0.554823 0.452991
vt 0.554823 0.390461
vt 0.593895 0.382632
vt 0.586080 0.359188
vt 0.586080 0.390445
vt 0.586080 0.452991
vt 0.554823 0.421734
vt 0.586080 0.390461
vt 0.554823 0.359203
vt 0.656410 0.374817
vt 0.593895 0.367003
vt 0.656410 0.437362
vt 0.593895 0.429548
vt 0.593895 0.445177
vt 0.656410 0.374833
vt 0.593895 0.367018
vt 0.593895 0.382646
vt 0.593895 0.429533
vt 0.593895 0.445161
vt 0.656410 0.437347
vt 0.586080 0.359203
vt 0.586080 0.421734
vt 0.554823 0.359188
vt 0.421978 0.398275
vt 0.437607 0.398260
vt 0.421978 0.460806
vt 0.421978 0.460791
vt 0.586080 0.421719
s 1
f 402/341/87 403/342/87 404/343/87
f 405/344/88 406/345/88 407/346/88
f 408/347/89 407/346/89 406/345/89
f 409/348/90 410/349/90 411/350/90
f 403/351/91 406/352/91 404/353/91
f 411/350/92 402/341/92 407/354/92
f 412/355/92 413/356/92 409/348/92
f 414/357/90 411/358/90 408/347/90
f 415/359/90 410/349/90 413/360/90
f 415/361/90 408/362/90 403/351/90
f 416/363/90 412/355/90 417/364/90
f 412/365/89 414/357/89 417/366/89
f 416/367/91 414/368/91 415/361/91
f 418/369/87 415/359/87 413/360/87
f 419/370/87 420/371/87 421/372/87
f 422/373/88 404/353/88 406/352/88
f 420/374/88 407/354/88 402/341/88
f 420/371/88 404/343/88 421/372/88
f 423/375/88 424/376/88 425/377/88
f 424/376/89 405/344/89 425/377/89
f 424/378/91 421/379/91 422/373/91
f 426/380/92 405/381/92 420/374/92
f 427/382/93 428/383/93 423/375/93
f 427/384/94 429/385/94 428/386/94
f 427/387/95 423/388/95 430/389/95
f 430/390/96 429/391/96 427/392/96
f 426/380/88 423/388/88 425/393/88
f 430/390/88 419/370/88 429/391/88
f 424/378/88 429/385/88 419/394/88
f 410/349/87 403/342/87 402/341/87
f 422/395/88 406/345/88 405/344/88
f 411/358/89 407/346/89 408/347/89
f 413/356/90 410/349/90 409/348/90
f 408/362/91 406/352/91 403/351/91
f 410/349/92 402/341/92 411/350/92
f 418/396/92 413/356/92 412/355/92
f 409/397/90 411/358/90 414/357/90
f 403/342/90 410/349/90 415/359/90
f 414/368/90 408/362/90 415/361/90
f 418/396/90 412/355/90 416/363/90
f 409/397/89 414/357/89 412/365/89
f 417/398/91 414/368/91 416/367/91
f 416/399/87 415/359/87 418/369/87
f 426/400/87 420/371/87 419/370/87
f 421/379/88 404/353/88 422/373/88
f 405/381/88 407/354/88 420/374/88
f 402/341/88 404/343/88 420/371/88
f 428/383/88 424/376/88 423/375/88
f 422/395/89 405/344/89 424/376/89
f 419/394/91 421/379/91 424/378/91
f 425/393/92 405/381/92 426/380/92
f 430/389/88 423/388/88 426/380/88
f 426/400/88 419/370/88 430/390/88
f 428/386/88 429/385/88 424/378/88
f 431/342/87 432/341/87 433/343/87
f 434/345/97 435/344/97 436/346/97
f 436/346/89 437/347/89 434/345/89
f 438/349/98 439/348/98 440/350/98
f 434/352/99 431/351/99 433/353/99
f 432/341/100 440/350/100 436/354/100
f 441/356/100 442/355/100 439/348/100
f 440/358/98 443/357/98 437/347/98
f 438/349/98 444/359/98 441/360/98
f 437/362/98 444/361/98 431/351/98
f 442/355/98 445/363/98 446/364/98
f 443/357/89 442/365/89 446/366/89
f 443/368/99 445/367/99 444/361/99
f 444/359/87 447/369/87 441/360/87
f 448/371/87 449/370/87 450/372/87
f 433/353/97 451/373/97 434/352/97
f 436/354/97 448/374/97 432/341/97
f 433/343/97 448/371/97 450/372/97
f 452/376/97 453/375/97 454/377/97
f 435/344/89 452/376/89 454/377/89
f 450/379/99 452/378/99 451/373/99
f 435/381/100 455/380/100 448/374/100
f 456/383/101 457/382/101 453/375/101
f 458/385/102 457/384/102 456/386/102
f 453/388/103 457/387/103 459/389/103
f 458/391/104 459/390/104 457/392/104
f 453/388/97 455/380/97 454/393/97
f 449/370/97 459/390/97 458/391/97
f 458/385/97 452/378/97 449/394/97
f 431/342/87 438/349/87 432/341/87
f 434/345/97 451/395/97 435/344/97
f 436/346/89 440/358/89 437/347/89
f 438/349/98 441/356/98 439/348/98
f 434/352/99 437/362/99 431/351/99
f 432/341/100 438/349/100 440/350/100
f 441/356/100 447/396/100 442/355/100
f 440/358/98 439/397/98 443/357/98
f 438/349/98 431/342/98 444/359/98
f 437/362/98 443/368/98 444/361/98
f 442/355/98 447/396/98 445/363/98
f 443/357/89 439/397/89 442/365/89
f 443/368/99 446/398/99 445/367/99
f 444/359/87 445/399/87 447/369/87
f 448/371/87 455/400/87 449/370/87
f 433/353/97 450/379/97 451/373/97
f 436/354/97 435/381/97 448/374/97
f 433/343/97 432/341/97 448/371/97
f 452/376/97 456/383/97 453/375/97
f 435/344/89 451/395/89 452/376/89
f 450/379/99 449/394/99 452/378/99
f 435/381/100 454/393/100 455/380/100
f 453/388/97 459/389/97 455/380/97
f 449/370/97 455/400/97 459/390/97
f 458/385/97 456/386/97 452/378/97
