# Blender 4.4.3
# www.blender.org
o Fan
v 1.500000 1.500000 1.375000
v 1.391747 1.500000 1.437500
v 1.391747 1.500000 1.562500
v 1.500000 1.500000 1.625000
v 1.608253 1.500000 1.562500
v 1.608253 1.500000 1.437500
v 1.500000 1.625000 1.375000
v 1.391747 1.625000 1.437500
v 1.391747 1.625000 1.562500
v 1.500000 1.625000 1.625000
v 1.608253 1.625000 1.562500
v 1.608253 1.625000 1.437500
v 1.608253 1.546324 1.560370
v 1.608253 1.578676 1.439630
v 2.041266 1.501839 1.726389
v 2.041266 1.623161 1.273611
v 1.498156 1.546324 1.376065
v 1.393591 1.578676 1.436435
v 1.425426 1.501839 0.918055
v 1.033309 1.623161 1.144444
v 1.393591 1.546324 1.563565
v 1.498156 1.578676 1.623935
v 1.033309 1.501839 1.855556
v 1.425426 1.623161 2.081945
vn 0.5000 -0.0000 -0.8660
vn 0.5000 -0.0000 0.8660
vn -1.0000 -0.0000 -0.0000
vn 1.0000 -0.0000 -0.0000
vn -0.5000 -0.0000 0.8660
vn -0.5000 -0.0000 -0.8660
vn -0.0000 1.0000 -0.0000
vn -0.0000 0.9659 0.2588
vn 0.2241 0.9659 -0.1294
vn -0.2241 0.9659 -0.1294
vt 0.508475 0.829545
vt 0.514124 0.818182
vt 0.514124 0.829545
vt 0.485876 0.829545
vt 0.491525 0.818182
vt 0.491525 0.829545
vt 0.497175 0.829545
vt 0.502825 0.818182
vt 0.502825 0.829545
vt 0.519774 0.818182
vt 0.519774 0.829545
vt 0.497175 0.818182
vt 0.508475 0.818182
vt 0.511326 0.831160
vt 0.516923 0.831160
vt 0.519721 0.840909
vt 0.500000 0.869318
vt 0.494350 0.869318
vt 0.485876 0.818182
vt 0.516923 0.850659
vt 0.511326 0.850659
vt 0.508527 0.840909
s 1
f 1/1/1 12/2/1 6/3/1
f 5/4/2 10/5/2 4/6/2
f 3/7/3 8/8/3 2/9/3
f 6/3/4 11/10/4 5/11/4
f 4/6/5 9/12/5 3/7/5
f 2/9/6 7/13/6 1/1/6
f 11/14/7 12/15/7 7/16/7
f 15/4/8 14/17/8 13/18/8
f 19/4/9 18/17/9 17/18/9
f 21/18/10 24/1/10 22/17/10
f 1/1/1 7/13/1 12/2/1
f 5/4/2 11/19/2 10/5/2
f 3/7/3 9/12/3 8/8/3
f 6/3/4 12/2/4 11/10/4
f 4/6/5 10/5/5 9/12/5
f 2/9/6 8/8/6 7/13/6
f 7/16/7 8/20/7 9/21/7
f 9/21/7 10/22/7 7/16/7
f 10/22/7 11/14/7 7/16/7
f 15/4/8 16/1/8 14/17/8
f 19/4/9 20/1/9 18/17/9
f 21/18/10 23/4/10 24/1/10
o Oven
v -2.500000 0.000000 3.500000
v 2.500000 0.000000 3.500000
v -2.500000 -0.000000 -3.500000
v 2.500000 -0.000000 -3.500000
v -2.500000 0.500000 3.500000
v 2.500000 0.500000 3.500000
v -2.500000 0.500000 -3.500000
v 2.500000 0.500000 -3.500000
v -2.375000 0.500000 3.375000
v 0.375000 0.500000 3.375000
v -2.375000 0.500000 2.875000
v 0.375000 0.500000 2.875000
v -2.375000 2.500000 2.875000
v -2.375000 2.500000 3.375000
v 0.375000 2.500000 3.375000
v 0.375000 2.500000 2.875000
v -1.625000 3.000000 2.875000
v -1.625000 3.000000 3.375000
v -0.375000 3.000000 3.375000
v -0.375000 3.000000 2.875000
v -2.375000 0.500000 -2.875000
v 0.375000 0.500000 -2.875000
v -2.375000 0.500000 -3.375000
v 0.375000 0.500000 -3.375000
v -2.375000 2.500000 -3.375000
v -2.375000 2.500000 -2.875000
v 0.375000 2.500000 -2.875000
v 0.375000 2.500000 -3.375000
v -1.625000 3.000000 -3.375000
v -1.625000 3.000000 -2.875000
v -0.375000 3.000000 -2.875000
v -0.375000 3.000000 -3.375000
v -2.375000 0.500000 -1.375000
v 0.375000 0.500000 -1.375000
v -2.375000 0.500000 -1.875000
v 0.375000 0.500000 -1.875000
v -2.375000 2.500000 -1.875000
v -2.375000 2.500000 -1.375000
v 0.375000 2.500000 -1.375000
v 0.375000 2.500000 -1.875000
v -1.625000 3.000000 -1.875000
v -1.625000 3.000000 -1.375000
v -0.375000 3.000000 -1.375000
v -0.375000 3.000000 -1.875000
v -2.375000 0.500000 1.875000
v 0.375000 0.500000 1.875000
v -2.375000 0.500000 1.375000
v 0.375000 0.500000 1.375000
v -2.375000 2.500000 1.375000
v -2.375000 2.500000 1.875000
v 0.375000 2.500000 1.875000
v 0.375000 2.500000 1.375000
v -1.625000 3.000000 1.375000
v -1.625000 3.000000 1.875000
v -0.375000 3.000000 1.875000
v -0.375000 3.000000 1.375000
v 0.250000 0.500000 -1.375000
v 0.250000 0.500000 1.375000
v 0.250000 2.375000 -1.375000
v 0.250000 2.375000 1.375000
v -0.500000 2.875000 -1.375000
v -0.500000 2.875000 1.375000
v -1.500000 2.875000 -1.375000
v -1.500000 2.875000 1.375000
v -2.250000 2.375000 -1.375000
v -2.250000 2.375000 1.375000
v -2.250000 0.500000 -1.375000
v -2.250000 0.500000 1.375000
v 0.250000 0.500000 1.875000
v 0.250000 2.375000 1.875000
v -0.500000 2.875000 1.875000
v -1.500000 2.875000 1.875000
v -2.250000 2.375000 1.875000
v -2.250000 0.500000 1.875000
v 0.250000 0.500000 2.875000
v 0.250000 2.375000 2.875000
v -0.500000 2.875000 2.875000
v -1.500000 2.875000 2.875000
v -2.250000 2.375000 2.875000
v -2.250000 0.500000 2.875000
v 0.250000 0.500000 -2.875000
v 0.250000 2.375000 -2.875000
v -0.500000 2.875000 -2.875000
v -1.500000 2.875000 -2.875000
v -2.250000 2.375000 -2.875000
v -2.250000 0.500000 -2.875000
v 0.250000 0.500000 -1.875000
v 0.250000 2.375000 -1.875000
v -0.500000 2.875000 -1.875000
v -1.500000 2.875000 -1.875000
v -2.250000 2.375000 -1.875000
v -2.250000 0.500000 -1.875000
v -1.000000 2.625000 3.375000
v -1.500000 2.491026 3.375000
v -1.866025 2.125000 3.375000
v -2.000000 1.625000 3.375000
v -1.866025 1.125000 3.375000
v -1.500000 0.758975 3.375000
v -1.000000 0.625000 3.375000
v -0.500000 0.758975 3.375000
v -0.133975 1.125000 3.375000
v 0.000000 1.625000 3.375000
v -0.133975 2.125000 3.375000
v -0.500000 2.491025 3.375000
v -1.000000 2.625000 3.500000
v -1.500000 2.491026 3.500000
v -1.866025 2.125000 3.500000
v -2.000000 1.625000 3.500000
v -1.866025 1.125000 3.500000
v -1.500000 0.758975 3.500000
v -1.000000 0.625000 3.500000
v -0.500000 0.758975 3.500000
v -0.133975 1.125000 3.500000
v 0.000000 1.625000 3.500000
v -0.133975 2.125000 3.500000
v -0.500000 2.491025 3.500000
v -1.500001 2.491025 -3.500000
v -1.866026 2.125000 -3.500000
v -2.000000 1.625000 -3.500000
v -1.866025 1.125000 -3.500000
v -1.500000 0.758975 -3.500000
v -1.000000 0.625000 -3.500000
v -0.500000 0.758975 -3.500000
v -0.133975 1.125000 -3.500000
v 0.000000 1.625000 -3.500000
v -0.133975 2.125000 -3.500000
v -0.500000 2.491026 -3.500000
v -1.000000 2.625000 -3.500000
v -1.500001 2.491025 -3.375000
v -1.866026 2.125000 -3.375000
v -2.000000 1.625000 -3.375000
v -1.866025 1.125000 -3.375000
v -1.500000 0.758975 -3.375000
v -1.000000 0.625000 -3.375000
v -0.500000 0.758975 -3.375000
v -0.133975 1.125000 -3.375000
v 0.000000 1.625000 -3.375000
v -0.133975 2.125000 -3.375000
v -0.500000 2.491026 -3.375000
v -1.000000 2.625000 -3.375000
v -0.625000 2.875000 2.000000
v -1.375000 2.875000 2.000000
v -0.625000 2.875000 2.750000
v -1.375000 2.875000 2.750000
v -1.312500 3.125000 2.062500
v -0.687500 3.125000 2.062500
v -1.312500 3.125000 2.687500
v -0.687500 3.125000 2.687500
v -1.375000 3.125000 2.000000
v -0.625000 3.125000 2.000000
v -1.375000 3.125000 2.750000
v -0.625000 3.125000 2.750000
v -1.312500 3.000000 2.062500
v -0.687500 3.000000 2.062500
v -1.312500 3.000000 2.687500
v -0.687500 3.000000 2.687500
v -1.312500 3.062500 2.062500
v -0.687500 3.062500 2.062500
v -1.312500 3.062500 2.687500
v -0.687500 3.062500 2.687500
v -0.625000 2.875000 -2.750000
v -1.375000 2.875000 -2.750000
v -0.625000 2.875000 -2.000000
v -1.375000 2.875000 -2.000000
v -1.312500 3.125000 -2.687500
v -0.687500 3.125000 -2.687500
v -1.312500 3.125000 -2.062500
v -0.687500 3.125000 -2.062500
v -1.375000 3.125000 -2.750000
v -0.625000 3.125000 -2.750000
v -1.375000 3.125000 -2.000000
v -0.625000 3.125000 -2.000000
v -1.312500 3.000000 -2.687500
v -0.687500 3.000000 -2.687500
v -1.312500 3.000000 -2.062500
v -0.687500 3.000000 -2.062500
v -1.312500 3.062500 -2.687500
v -0.687500 3.062500 -2.687500
v -1.312500 3.062500 -2.062500
v -0.687500 3.062500 -2.062500
v -0.625000 2.875000 -1.250000
v -1.375000 2.875000 -1.250000
v -0.625000 2.875000 -0.500000
v -1.375000 2.875000 -0.500000
v -1.312500 3.125000 -1.187500
v -0.687500 3.125000 -1.187500
v -1.312500 3.125000 -0.562500
v -0.687500 3.125000 -0.562500
v -1.375000 3.125000 -1.250000
v -0.625000 3.125000 -1.250000
v -1.375000 3.125000 -0.500000
v -0.625000 3.125000 -0.500000
v -1.312500 3.000000 -1.187500
v -0.687500 3.000000 -1.187500
v -1.312500 3.000000 -0.562500
v -0.687500 3.000000 -0.562500
v -1.312500 3.062500 -1.187500
v -0.687500 3.062500 -1.187500
v -1.312500 3.062500 -0.562500
v -0.687500 3.062500 -0.562500
v -0.625000 2.875000 0.500000
v -1.375000 2.875000 0.500000
v -0.625000 2.875000 1.250000
v -1.375000 2.875000 1.250000
v -1.312500 3.125000 0.562500
v -0.687500 3.125000 0.562500
v -1.312500 3.125000 1.187500
v -0.687500 3.125000 1.187500
v -1.375000 3.125000 0.500000
v -0.625000 3.125000 0.500000
v -1.375000 3.125000 1.250000
v -0.625000 3.125000 1.250000
v -1.312500 3.000000 0.562500
v -0.687500 3.000000 0.562500
v -1.312500 3.000000 1.187500
v -0.687500 3.000000 1.187500
v -1.312500 3.062500 0.562500
v -0.687500 3.062500 0.562500
v -1.312500 3.062500 1.187500
v -0.687500 3.062500 1.187500
v 0.875000 1.750000 2.125000
v 2.125000 1.750000 2.125000
v 0.875000 1.750000 0.875000
v 2.125000 1.750000 0.875000
v 2.250000 1.500000 0.750000
v 0.750000 1.500000 0.750000
v 2.250000 1.500000 2.250000
v 0.750000 1.500000 2.250000
v 0.500000 0.500000 -0.500000
v 2.500000 0.500000 -0.500000
v 0.500000 0.500000 -2.500000
v 2.500000 0.500000 -2.500000
v 2.500000 1.500000 -2.500000
v 0.500000 1.500000 -2.500000
v 2.500000 1.500000 -0.500000
v 0.500000 1.500000 -0.500000
v 0.500000 1.500000 2.500000
v 2.500000 1.500000 2.500000
v 0.500000 1.500000 0.500000
v 2.500000 1.500000 0.500000
v 2.500000 0.500000 0.500000
v 0.500000 0.500000 0.500000
v 2.500000 0.500000 2.500000
v 0.500000 0.500000 2.500000
v 0.750000 1.750000 0.750000
v 0.750000 1.750000 2.250000
v 2.250000 1.750000 2.250000
v 2.250000 1.750000 0.750000
v 0.875000 1.500000 0.875000
v 0.875000 1.500000 2.125000
v 2.125000 1.500000 2.125000
v 2.125000 1.500000 0.875000
v 0.875000 1.687500 2.125000
v 2.125000 1.687500 2.125000
v 0.875000 1.687500 0.875000
v 2.125000 1.687500 0.875000
v 1.176777 2.801777 -0.823223
v 0.875000 2.801777 -0.698223
v 0.875000 2.625000 -0.625000
v 0.875000 2.448223 -0.698223
v 0.875000 2.375000 -0.875000
v 0.875000 2.448223 -1.051777
v 0.875000 2.801777 -1.051777
v 0.875000 2.875000 -0.875000
v 0.875000 2.000000 -1.500000
v 0.948223 2.000000 -1.323223
v 1.125000 2.000000 -1.250000
v 1.301777 2.000000 -1.323223
v 1.375000 2.000000 -1.500000
v 1.301777 2.000000 -1.676777
v 1.125000 2.000000 -1.750000
v 0.948223 2.000000 -1.676777
v 0.948223 2.375000 -1.676777
v 1.125000 2.375000 -1.750000
v 1.301777 2.375000 -1.676777
v 1.375000 2.375000 -1.500000
v 1.301777 2.375000 -1.323223
v 1.125000 2.375000 -1.250000
v 0.948223 2.375000 -1.323223
v 0.875000 2.375000 -1.500000
v 0.875000 2.551777 -1.426777
v 0.948223 2.426777 -1.301777
v 1.301777 2.426777 -1.301777
v 1.375000 2.551777 -1.426777
v 1.301777 2.676777 -1.551777
v 1.125000 2.728553 -1.603553
v 2.250000 2.000000 -2.250000
v 0.750000 2.000000 -2.250000
v 2.250000 2.000000 -0.750000
v 0.750000 2.000000 -0.750000
v 0.750000 1.500000 -0.750000
v 2.250000 1.500000 -0.750000
v 0.750000 1.500000 -2.250000
v 2.250000 1.500000 -2.250000
v 0.500000 0.500000 0.250000
v 2.500000 0.500000 0.250000
v 0.500000 0.500000 -0.250000
v 2.500000 0.500000 -0.250000
v 0.500000 1.250000 -0.250000
v 0.500000 1.250000 0.250000
v 2.500000 1.250000 0.250000
v 2.500000 1.250000 -0.250000
v 0.625000 1.250000 -0.031250
v 0.625000 1.250000 0.031250
v 2.375000 1.250000 0.031250
v 2.375000 1.250000 -0.031250
v 0.625000 1.500000 -0.031250
v 0.625000 1.500000 0.031250
v 2.375000 1.500000 0.031250
v 2.375000 1.500000 -0.031250
v 0.625000 1.250000 -0.125000
v 0.625000 1.250000 -0.062500
v 2.375000 1.250000 -0.062500
v 2.375000 1.250000 -0.125000
v 0.625000 1.500000 -0.125000
v 0.625000 1.500000 -0.062500
v 2.375000 1.500000 -0.062500
v 2.375000 1.500000 -0.125000
v 0.625000 1.250000 0.062500
v 0.625000 1.250000 0.125000
v 2.375000 1.250000 0.125000
v 2.375000 1.250000 0.062500
v 0.625000 1.500000 0.062500
v 0.625000 1.500000 0.125000
v 2.375000 1.500000 0.125000
v 2.375000 1.500000 0.062500
v 0.625000 1.250000 -0.218750
v 0.625000 1.250000 -0.156250
v 2.375000 1.250000 -0.156250
v 2.375000 1.250000 -0.218750
v 0.625000 1.500000 -0.218750
v 0.625000 1.500000 -0.156250
v 2.375000 1.500000 -0.156250
v 2.375000 1.500000 -0.218750
v 0.625000 1.250000 0.156250
v 0.625000 1.250000 0.218750
v 2.375000 1.250000 0.218750
v 2.375000 1.250000 0.156250
v 0.625000 1.500000 0.156250
v 0.625000 1.500000 0.218750
v 2.375000 1.500000 0.218750
v 2.375000 1.500000 0.156250
v 1.500000 1.125000 0.500000
v 1.323223 1.051777 0.500000
v 1.250000 0.875000 0.500000
v 1.323223 0.698223 0.500000
v 1.500000 0.625000 0.500000
v 1.676777 0.698223 0.500000
v 1.750000 0.875000 0.500000
v 1.676777 1.051777 0.500000
v 1.500000 1.125000 -0.500000
v 1.323223 1.051777 -0.500000
v 1.250000 0.875000 -0.500000
v 1.323223 0.698223 -0.500000
v 1.500000 0.625000 -0.500000
v 1.676777 0.698223 -0.500000
v 1.750000 0.875000 -0.500000
v 1.676777 1.051777 -0.500000
v 2.125000 1.125000 0.500000
v 1.948223 1.051777 0.500000
v 1.875000 0.875000 0.500000
v 1.948223 0.698223 0.500000
v 2.125000 0.625000 0.500000
v 2.301777 0.698223 0.500000
v 2.375000 0.875000 0.500000
v 2.301777 1.051777 0.500000
v 2.125000 1.125000 -0.500000
v 1.948223 1.051777 -0.500000
v 1.875000 0.875000 -0.500000
v 1.948223 0.698223 -0.500000
v 2.125000 0.625000 -0.500000
v 2.301777 0.698223 -0.500000
v 2.375000 0.875000 -0.500000
v 2.301777 1.051777 -0.500000
v 0.875000 1.125000 0.500000
v 0.698223 1.051777 0.500000
v 0.625000 0.875000 0.500000
v 0.698223 0.698223 0.500000
v 0.875000 0.625000 0.500000
v 1.051777 0.698223 0.500000
v 1.125000 0.875000 0.500000
v 1.051777 1.051777 0.500000
v 0.875000 1.125000 -0.500000
v 0.698223 1.051777 -0.500000
v 0.625000 0.875000 -0.500000
v 0.698223 0.698223 -0.500000
v 0.875000 0.625000 -0.500000
v 1.051777 0.698223 -0.500000
v 1.125000 0.875000 -0.500000
v 1.051777 1.051777 -0.500000
v 1.429917 1.382583 2.500000
v 1.562500 1.437500 2.500000
v 1.695083 1.382583 2.500000
v 1.750000 1.250000 2.500000
v 1.695083 1.117417 2.500000
v 1.562500 1.062500 2.500000
v 1.429917 1.117417 2.500000
v 1.413833 1.117417 2.538833
v 1.507583 1.062500 2.632582
v 1.601333 1.117417 2.726332
v 1.640165 1.250000 2.765165
v 1.601333 1.382583 2.726332
v 1.507583 1.437500 2.632582
v 1.413833 1.382583 2.538833
v 1.375000 1.250000 2.500000
v 1.375000 1.382583 2.554918
v 1.375000 1.437500 2.687500
v 1.375000 1.382583 2.820082
v 1.375000 1.250000 2.875000
v 1.375000 1.117417 2.820082
v 1.375000 1.062500 2.687500
v 1.375000 1.117417 2.554918
v 0.250000 1.117417 2.554918
v 0.250000 1.062500 2.687500
v 0.250000 1.117417 2.820082
v 0.250000 1.250000 2.875000
v 0.250000 1.382583 2.820082
v 0.250000 1.437500 2.687500
v 0.250000 1.382583 2.554918
v 0.250000 1.250000 2.500000
v 0.375000 1.250000 2.937500
v 0.375000 1.382583 2.992418
v 0.375000 1.437500 3.125000
v 0.375000 1.382583 3.257582
v 0.375000 1.250000 3.312500
v 0.375000 1.117417 3.257582
v 0.375000 1.062500 3.125000
v 0.375000 1.117417 2.992418
v 1.875000 1.117417 2.992418
v 1.875000 1.062500 3.125000
v 1.875000 1.117417 3.257582
v 1.875000 1.250000 3.312500
v 1.875000 1.382583 3.257582
v 1.875000 1.437500 3.125000
v 1.875000 1.382583 2.992418
v 1.875000 1.250000 2.937500
v 1.913833 1.382583 2.976333
v 2.007583 1.437500 3.070082
v 2.101333 1.382583 3.163832
v 2.140165 1.250000 3.202665
v 2.101333 1.117417 3.163832
v 2.007583 1.062500 3.070082
v 1.913833 1.117417 2.976333
v 1.929917 1.117417 2.937500
v 2.062500 1.062500 2.937500
v 2.195083 1.117417 2.937500
v 2.250000 1.250000 2.937500
v 2.195083 1.382583 2.937500
v 2.062500 1.437500 2.937500
v 1.929917 1.382583 2.937500
v 1.929917 1.382583 2.500000
v 2.062500 1.437500 2.500000
v 2.195083 1.382583 2.500000
v 2.250000 1.250000 2.500000
v 2.195083 1.117417 2.500000
v 2.062500 1.062500 2.500000
v 1.929917 1.117417 2.500000
v 1.875000 1.250000 2.500000
v 0.948223 2.676777 -1.551777
v 0.948223 2.801777 -1.250000
v 1.125000 2.875000 -1.250000
v 1.301777 2.801777 -1.250000
v 1.375000 2.625000 -1.250000
v 1.301777 2.448223 -1.250000
v 0.948223 2.448223 -1.250000
v 0.875000 2.625000 -1.250000
v 1.625000 2.625000 -1.250000
v 1.698223 2.448223 -1.250000
v 2.051777 2.448223 -1.250000
v 2.125000 2.625000 -1.250000
v 2.051777 2.801777 -1.250000
v 1.875000 2.875000 -1.250000
v 1.698223 2.801777 -1.250000
v 1.698223 2.676777 -1.551777
v 1.875000 2.728553 -1.603553
v 2.051777 2.676777 -1.551777
v 2.125000 2.551777 -1.426777
v 2.051777 2.426777 -1.301777
v 1.698223 2.426777 -1.301777
v 1.625000 2.551777 -1.426777
v 1.625000 2.375000 -1.500000
v 1.698223 2.375000 -1.323223
v 1.875000 2.375000 -1.250000
v 2.051777 2.375000 -1.323223
v 2.125000 2.375000 -1.500000
v 2.051777 2.375000 -1.676777
v 1.875000 2.375000 -1.750000
v 1.698223 2.375000 -1.676777
v 1.698223 2.000000 -1.676777
v 1.875000 2.000000 -1.750000
v 2.051777 2.000000 -1.676777
v 2.125000 2.000000 -1.500000
v 2.051777 2.000000 -1.323223
v 1.875000 2.000000 -1.250000
v 1.698223 2.000000 -1.323223
v 1.625000 2.000000 -1.500000
v 1.625000 2.875000 0.875000
v 1.625000 2.801777 0.698223
v 1.625000 2.448223 0.698223
v 1.625000 2.375000 0.875000
v 1.625000 2.448223 1.051777
v 1.625000 2.625000 1.125000
v 1.625000 2.801777 1.051777
v 1.926777 2.801777 0.926777
v 1.978553 2.625000 0.978553
v 1.926777 2.448223 0.926777
v 1.801777 2.375000 0.801777
v 1.676777 2.448223 0.676777
v 1.676777 2.801777 0.676777
v 1.801777 2.875000 0.801777
v 1.875000 2.875000 0.625000
v 1.698223 2.801777 0.625000
v 1.625000 2.625000 0.625000
v 1.698223 2.448223 0.625000
v 1.875000 2.375000 0.625000
v 2.051777 2.448223 0.625000
v 2.125000 2.625000 0.625000
v 2.051777 2.801777 0.625000
v 0.948223 2.801777 -1.125000
v 1.125000 2.875000 -1.125000
v 1.051777 2.875000 -0.948223
v 0.926777 2.801777 -1.073223
v 0.926777 2.448223 -1.073223
v 1.051777 2.375000 -0.948223
v 1.176777 2.448223 -0.823223
v 1.228553 2.625000 -0.771447
v -0.500000 2.875000 0.875000
v -0.500000 2.801777 0.698223
v -0.500000 2.448223 0.698223
v -0.500000 2.375000 0.875000
v -0.500000 2.448223 1.051777
v -0.500000 2.625000 1.125000
v -0.500000 2.801777 1.051777
v -0.500000 2.625000 0.625000
v 0.875000 2.625000 -1.125000
v 0.948223 2.448223 -1.125000
v 1.125000 2.375000 -1.125000
v 1.301777 2.448223 -1.125000
v 1.375000 2.625000 -1.125000
v 1.301777 2.801777 -1.125000
v -0.500000 2.875000 -0.875000
v -0.500000 2.801777 -1.051777
v -0.500000 2.448223 -1.051777
v -0.500000 2.375000 -0.875000
v -0.500000 2.448223 -0.698223
v -0.500000 2.625000 -0.625000
v -0.500000 2.801777 -0.698223
v -0.500000 2.625000 -1.125000
v 2.000000 2.000000 -2.250000
v 2.000000 2.000000 -0.750000
v 2.000000 1.500000 -0.750000
v 2.000000 1.500000 -2.250000
v 2.000000 2.125000 -2.250000
v 2.000000 2.125000 -0.750000
v 2.000000 2.000000 -0.625000
v 2.000000 1.500000 -0.625000
v 2.000000 2.000000 -2.375000
v 2.000000 1.500000 -2.375000
v 1.750000 2.000000 -2.250000
v 1.750000 1.500000 -2.250000
v 1.750000 2.000000 -0.750000
v 1.750000 1.500000 -0.750000
v 1.750000 2.125000 -0.750000
v 1.750000 2.125000 -2.250000
v 1.750000 2.000000 -0.625000
v 1.750000 1.500000 -0.625000
v 1.750000 2.000000 -2.375000
v 1.750000 1.500000 -2.375000
v 1.250000 2.000000 -2.250000
v 1.250000 2.000000 -0.750000
v 1.250000 1.500000 -0.750000
v 1.250000 1.500000 -2.250000
v 1.250000 2.125000 -2.250000
v 1.250000 2.125000 -0.750000
v 1.250000 2.000000 -0.625000
v 1.250000 1.500000 -0.625000
v 1.250000 2.000000 -2.375000
v 1.250000 1.500000 -2.375000
v 1.000000 2.000000 -2.250000
v 1.000000 1.500000 -2.250000
v 1.000000 2.000000 -0.750000
v 1.000000 1.500000 -0.750000
v 1.000000 2.125000 -0.750000
v 1.000000 2.125000 -2.250000
v 1.000000 2.000000 -0.625000
v 1.000000 1.500000 -0.625000
v 1.000000 2.000000 -2.375000
v 1.000000 1.500000 -2.375000
v 1.429917 0.882583 2.500000
v 1.562500 0.937500 2.500000
v 1.695083 0.882583 2.500000
v 1.750000 0.750000 2.500000
v 1.695083 0.617417 2.500000
v 1.562500 0.562500 2.500000
v 1.429917 0.617417 2.500000
v 1.413833 0.617417 2.538833
v 1.507583 0.562500 2.632582
v 1.601333 0.617417 2.726332
v 1.640165 0.750000 2.765165
v 1.601333 0.882583 2.726332
v 1.507583 0.937500 2.632582
v 1.413833 0.882583 2.538833
v 1.375000 0.750000 2.500000
v 1.375000 0.882583 2.554918
v 1.375000 0.937500 2.687500
v 1.375000 0.882583 2.820082
v 1.375000 0.750000 2.875000
v 1.375000 0.617417 2.820082
v 1.375000 0.562500 2.687500
v 1.375000 0.617417 2.554918
v 0.250000 0.617417 2.554918
v 0.250000 0.562500 2.687500
v 0.250000 0.617417 2.820082
v 0.250000 0.750000 2.875000
v 0.250000 0.882583 2.820082
v 0.250000 0.937500 2.687500
v 0.250000 0.882583 2.554918
v 0.250000 0.750000 2.500000
v 0.375000 0.750000 2.937500
v 0.375000 0.882583 2.992418
v 0.375000 0.937500 3.125000
v 0.375000 0.882583 3.257582
v 0.375000 0.750000 3.312500
v 0.375000 0.617417 3.257582
v 0.375000 0.562500 3.125000
v 0.375000 0.617417 2.992418
v 1.875000 0.617417 2.992418
v 1.875000 0.562500 3.125000
v 1.875000 0.617417 3.257582
v 1.875000 0.750000 3.312500
v 1.875000 0.882583 3.257582
v 1.875000 0.937500 3.125000
v 1.875000 0.882583 2.992418
v 1.875000 0.750000 2.937500
v 1.913833 0.882583 2.976333
v 2.007583 0.937500 3.070082
v 2.101333 0.882583 3.163832
v 2.140165 0.750000 3.202665
v 2.101333 0.617417 3.163832
v 2.007583 0.562500 3.070082
v 1.913833 0.617417 2.976333
v 1.929917 0.617417 2.937500
v 2.062500 0.562500 2.937500
v 2.195083 0.617417 2.937500
v 2.250000 0.750000 2.937500
v 2.195083 0.882583 2.937500
v 2.062500 0.937500 2.937500
v 1.929917 0.882583 2.937500
v 1.929917 0.882583 2.500000
v 2.062500 0.937500 2.500000
v 2.195083 0.882583 2.500000
v 2.250000 0.750000 2.500000
v 2.195083 0.617417 2.500000
v 2.062500 0.562500 2.500000
v 1.929917 0.617417 2.500000
v 1.875000 0.750000 2.500000
v 1.429917 1.382583 -2.500000
v 1.562500 1.437500 -2.500000
v 1.695083 1.382583 -2.500000
v 1.750000 1.250000 -2.500000
v 1.695083 1.117417 -2.500000
v 1.562500 1.062500 -2.500000
v 1.429917 1.117417 -2.500000
v 1.413833 1.117417 -2.538833
v 1.507583 1.062500 -2.632582
v 1.601333 1.117417 -2.726332
v 1.640165 1.250000 -2.765165
v 1.601333 1.382583 -2.726332
v 1.507583 1.437500 -2.632582
v 1.413833 1.382583 -2.538833
v 1.375000 1.250000 -2.500000
v 1.375000 1.382583 -2.554918
v 1.375000 1.437500 -2.687500
v 1.375000 1.382583 -2.820082
v 1.375000 1.250000 -2.875000
v 1.375000 1.117417 -2.820082
v 1.375000 1.062500 -2.687500
v 1.375000 1.117417 -2.554918
v 0.250000 1.117417 -2.554918
v 0.250000 1.062500 -2.687500
v 0.250000 1.117417 -2.820082
v 0.250000 1.250000 -2.875000
v 0.250000 1.382583 -2.820082
v 0.250000 1.437500 -2.687500
v 0.250000 1.382583 -2.554918
v 0.250000 1.250000 -2.500000
v 0.375000 1.250000 -2.937500
v 0.375000 1.382583 -2.992418
v 0.375000 1.437500 -3.125000
v 0.375000 1.382583 -3.257582
v 0.375000 1.250000 -3.312500
v 0.375000 1.117417 -3.257582
v 0.375000 1.062500 -3.125000
v 0.375000 1.117417 -2.992418
v 1.875000 1.117417 -2.992418
v 1.875000 1.062500 -3.125000
v 1.875000 1.117417 -3.257582
v 1.875000 1.250000 -3.312500
v 1.875000 1.382583 -3.257582
v 1.875000 1.437500 -3.125000
v 1.875000 1.382583 -2.992418
v 1.875000 1.250000 -2.937500
v 1.913833 1.382583 -2.976333
v 2.007583 1.437500 -3.070082
v 2.101333 1.382583 -3.163832
v 2.140165 1.250000 -3.202665
v 2.101333 1.117417 -3.163832
v 2.007583 1.062500 -3.070082
v 1.913833 1.117417 -2.976333
v 1.929917 1.117417 -2.937500
v 2.062500 1.062500 -2.937500
v 2.195083 1.117417 -2.937500
v 2.250000 1.250000 -2.937500
v 2.195083 1.382583 -2.937500
v 2.062500 1.437500 -2.937500
v 1.929917 1.382583 -2.937500
v 1.929917 1.382583 -2.500000
v 2.062500 1.437500 -2.500000
v 2.195083 1.382583 -2.500000
v 2.250000 1.250000 -2.500000
v 2.195083 1.117417 -2.500000
v 2.062500 1.062500 -2.500000
v 1.929917 1.117417 -2.500000
v 1.875000 1.250000 -2.500000
v 1.429917 0.882583 -2.500000
v 1.562500 0.937500 -2.500000
v 1.695083 0.882583 -2.500000
v 1.750000 0.750000 -2.500000
v 1.695083 0.617417 -2.500000
v 1.562500 0.562500 -2.500000
v 1.429917 0.617417 -2.500000
v 1.413833 0.617417 -2.538833
v 1.507583 0.562500 -2.632582
v 1.601333 0.617417 -2.726332
v 1.640165 0.750000 -2.765165
v 1.601333 0.882583 -2.726332
v 1.507583 0.937500 -2.632582
v 1.413833 0.882583 -2.538833
v 1.375000 0.750000 -2.500000
v 1.375000 0.882583 -2.554918
v 1.375000 0.937500 -2.687500
v 1.375000 0.882583 -2.820082
v 1.375000 0.750000 -2.875000
v 1.375000 0.617417 -2.820082
v 1.375000 0.562500 -2.687500
v 1.375000 0.617417 -2.554918
v 0.250000 0.617417 -2.554918
v 0.250000 0.562500 -2.687500
v 0.250000 0.617417 -2.820082
v 0.250000 0.750000 -2.875000
v 0.250000 0.882583 -2.820082
v 0.250000 0.937500 -2.687500
v 0.250000 0.882583 -2.554918
v 0.250000 0.750000 -2.500000
v 0.375000 0.750000 -2.937500
v 0.375000 0.882583 -2.992418
v 0.375000 0.937500 -3.125000
v 0.375000 0.882583 -3.257582
v 0.375000 0.750000 -3.312500
v 0.375000 0.617417 -3.257582
v 0.375000 0.562500 -3.125000
v 0.375000 0.617417 -2.992418
v 1.875000 0.617417 -2.992418
v 1.875000 0.562500 -3.125000
v 1.875000 0.617417 -3.257582
v 1.875000 0.750000 -3.312500
v 1.875000 0.882583 -3.257582
v 1.875000 0.937500 -3.125000
v 1.875000 0.882583 -2.992418
v 1.875000 0.750000 -2.937500
v 1.913833 0.882583 -2.976333
v 2.007583 0.937500 -3.070082
v 2.101333 0.882583 -3.163832
v 2.140165 0.750000 -3.202665
v 2.101333 0.617417 -3.163832
v 2.007583 0.562500 -3.070082
v 1.913833 0.617417 -2.976333
v 1.929917 0.617417 -2.937500
v 2.062500 0.562500 -2.937500
v 2.195083 0.617417 -2.937500
v 2.250000 0.750000 -2.937500
v 2.195083 0.882583 -2.937500
v 2.062500 0.937500 -2.937500
v 1.929917 0.882583 -2.937500
v 1.929917 0.882583 -2.500000
v 2.062500 0.937500 -2.500000
v 2.195083 0.882583 -2.500000
v 2.250000 0.750000 -2.500000
v 2.195083 0.617417 -2.500000
v 2.062500 0.562500 -2.500000
v 1.929917 0.617417 -2.500000
v 1.875000 0.750000 -2.500000
v -2.375000 0.500000 0.250000
v 0.375000 0.500000 0.250000
v -2.375000 0.500000 -0.250000
v 0.375000 0.500000 -0.250000
v -2.375000 2.500000 -0.250000
v -2.375000 2.500000 0.250000
v 0.375000 2.500000 0.250000
v 0.375000 2.500000 -0.250000
v -1.625000 3.000000 -0.250000
v -1.625000 3.000000 0.250000
v -0.375000 3.000000 0.250000
v -0.375000 3.000000 -0.250000
vn -0.0000 -1.0000 -0.0000
vn -0.0000 1.0000 -0.0000
vn -0.0000 -0.0000 -1.0000
vn -0.0000 -0.0000 1.0000
vn 1.0000 -0.0000 -0.0000
vn -1.0000 -0.0000 -0.0000
vn -0.5547 0.8321 -0.0000
vn 0.5547 0.8321 -0.0000
vn -0.0000 0.7071 -0.7071
vn -0.0000 0.7071 0.7071
vn -0.8660 -0.5000 -0.0000
vn 0.5000 0.8660 -0.0000
vn 0.8660 0.5000 -0.0000
vn -0.5000 0.8660 -0.0000
vn 0.8660 -0.5000 -0.0000
vn 0.5000 -0.8660 -0.0000
vn -0.5000 -0.8660 -0.0000
vn -0.8660 0.5000 -0.0000
vn 0.7194 0.6794 0.1448
vn 0.7071 -0.0000 0.7071
vn 0.9824 -0.0000 0.1866
vn 0.0473 -0.9987 0.0196
vn 0.5293 -0.6630 0.5293
vn 0.0671 -0.9955 0.0671
vn 0.0473 0.9987 0.0196
vn -0.4617 0.7574 -0.4617
vn 0.0671 0.9955 0.0671
vn 0.5293 0.6630 0.5294
vn 0.7194 -0.6794 0.1448
vn -0.4617 -0.7574 -0.4617
vn 0.0196 -0.9987 0.0473
vn -0.1363 -0.7263 -0.6737
vn 0.1448 -0.6794 0.7194
vn 0.0196 0.9987 0.0473
vn 0.1448 0.6794 0.7194
vn 0.7574 -0.4617 0.4617
vn 0.7263 -0.6737 0.1363
vn -0.0000 -0.7071 0.7071
vn 0.7263 -0.1363 0.6737
vn -0.7263 -0.6737 0.1363
vn -0.7574 -0.4617 0.4617
vn -0.7263 -0.1363 0.6737
vn -0.6794 0.7194 -0.1448
vn -0.0000 0.9824 -0.1866
vn 0.9955 0.0671 -0.0671
vn 0.6794 0.7194 -0.1448
vn 0.9987 0.0473 -0.0196
vn -0.9987 0.0473 -0.0196
vn -0.9955 0.0671 -0.0671
vn -0.7071 -0.0000 0.7071
vn 0.6794 0.1448 -0.7194
vn 0.7071 -0.0000 -0.7071
vn 0.7071 -0.7071 -0.0000
vn -0.7071 -0.7071 -0.0000
vn -0.7071 0.7071 -0.0000
vn 0.7071 0.7071 -0.0000
vn -0.1944 -0.0000 -0.9809
vn -0.6303 0.7311 -0.2611
vn -0.1363 0.7263 -0.6737
vn -0.6303 -0.7311 -0.2611
vn 0.7150 -0.6333 0.2962
vn 0.5293 -0.6630 0.5294
vn 0.5293 0.6630 0.5293
vn 0.9239 -0.0000 0.3827
vn 0.7150 0.6333 0.2962
vn 0.0948 -0.9947 0.0393
vn 0.0948 0.9947 0.0393
vn 0.1866 -0.0000 0.9824
vn -0.0000 -0.7071 -0.7071
vn -0.7071 -0.0000 -0.7071
vn 0.5294 -0.6630 0.5294
vn -0.6737 -0.7263 -0.1363
vn -0.6737 0.7263 -0.1363
vn 0.7193 -0.6794 0.1448
vn -0.6794 0.1448 -0.7194
vn -0.9987 0.0196 -0.0473
vn 0.9987 0.0196 -0.0473
vn -0.0000 0.1866 -0.9824
vn 0.6630 0.5293 -0.5294
vn -0.6630 0.5293 -0.5294
vn 0.5294 0.6630 0.5294
vn 0.5294 0.6630 0.5293
vn -0.1944 -0.0000 0.9809
vn -0.6303 0.7311 0.2611
vn -0.4617 0.7574 0.4617
vn -0.1363 0.7263 0.6737
vn -0.4617 -0.7574 0.4617
vn -0.6303 -0.7311 0.2611
vn -0.1363 -0.7263 0.6737
vn 0.7150 -0.6333 -0.2962
vn 0.0671 -0.9955 -0.0671
vn 0.5293 -0.6630 -0.5294
vn 0.5293 0.6630 -0.5293
vn 0.9239 -0.0000 -0.3827
vn 0.0948 0.9947 -0.0393
vn 0.0671 0.9955 -0.0671
vn 0.0948 -0.9947 -0.0393
vn 0.7150 0.6333 -0.2962
vn 0.0196 -0.9987 -0.0473
vn 0.1448 -0.6794 -0.7194
vn 0.0196 0.9987 -0.0473
vn 0.1448 0.6794 -0.7194
vn 0.1866 -0.0000 -0.9824
vn 0.5294 0.6630 -0.5293
vn 0.0473 0.9987 -0.0196
vn 0.9824 -0.0000 -0.1866
vn 0.5294 -0.6630 -0.5294
vn 0.0473 -0.9987 -0.0196
vn 0.7193 -0.6794 -0.1448
vn -0.6737 -0.7263 0.1363
vn -0.6737 0.7263 0.1363
vn 0.7194 0.6794 -0.1448
vt 0.338983 0.000000
vt 0.022599 0.454545
vt 0.022599 0.000000
vt 0.022599 0.500000
vt 0.338983 0.954545
vt 0.022599 0.954545
vt 0.361582 0.954545
vt 0.338983 0.500000
vt 0.361582 0.500000
vt 0.000000 0.500000
vt 0.000000 0.954545
vt 0.338983 0.454545
vt 0.022599 1.000000
vt 0.338983 1.000000
vt 0.361582 0.227273
vt 0.395480 0.272727
vt 0.361582 0.272727
vt 0.508475 -0.000000
vt 0.485876 0.181818
vt 0.485876 -0.000000
vt 0.361582 -0.000000
vt 0.338983 0.181818
vt 0.485876 0.318182
vt 0.485876 0.500000
vt 0.361582 0.181818
vt 0.451977 0.227273
vt 0.395480 0.227273
vt 0.361582 0.318182
vt 0.451977 0.272727
vt 0.485876 0.272727
vt 0.485876 0.227273
vt 0.677966 0.170455
vt 0.553672 -0.000000
vt 0.677966 -0.000000
vt 0.553672 0.238636
vt 0.553672 0.170455
vt 0.677966 0.238636
vt 0.553672 0.329545
vt 0.677966 0.329545
vt 0.553672 0.397727
vt 0.677966 0.397727
vt 0.553672 0.568182
vt 0.508475 0.329545
vt 0.508475 0.170455
vt 0.508475 0.397727
vt 0.508475 0.238636
vt 0.723164 0.397727
vt 0.723164 0.329545
vt 0.723164 0.238636
vt 0.723164 0.170455
vt 0.723164 0.568182
vt 0.723164 -0.000000
vt 0.988274 0.136340
vt 0.949153 0.181770
vt 0.910031 0.045479
vt 0.988274 0.045478
vt 0.497175 0.886364
vt 0.429379 0.909091
vt 0.429379 0.886364
vt 0.632768 0.886364
vt 0.564972 0.909091
vt 0.564972 0.886364
vt 0.497175 0.909091
vt 0.361582 0.909091
vt 0.361582 0.886364
vt 0.666667 0.676136
vt 0.694915 0.664773
vt 0.694915 0.676136
vt 0.697740 0.568182
vt 0.663842 0.590909
vt 0.663842 0.568182
vt 0.646893 0.602273
vt 0.658192 0.670455
vt 0.646893 0.670455
vt 0.663842 0.704545
vt 0.697740 0.681818
vt 0.697740 0.704545
vt 0.714689 0.670455
vt 0.703390 0.602273
vt 0.714689 0.602273
vt 0.700565 0.607955
vt 0.703390 0.670455
vt 0.700565 0.664773
vt 0.661017 0.664773
vt 0.658192 0.602273
vt 0.661017 0.607955
vt 0.663842 0.681818
vt 0.666667 0.596591
vt 0.697740 0.590909
vt 0.694915 0.596591
vt 0.666667 0.607955
vt 0.694915 0.607955
vt 0.666667 0.664773
vt 0.629943 0.761364
vt 0.601695 0.704545
vt 0.629943 0.704545
vt 0.559322 0.920455
vt 0.502825 0.943182
vt 0.502825 0.920455
vt 0.587571 0.590909
vt 0.590395 0.750000
vt 0.587571 0.750000
vt 0.768362 0.454545
vt 0.858757 0.636364
vt 0.768362 0.636364
vt 0.723164 0.454545
vt 0.723164 0.636364
vt 0.903955 0.636364
vt 0.858757 0.454545
vt 0.903955 0.454545
vt 0.768362 0.727273
vt 0.858757 0.727273
vt 0.858757 0.363636
vt 0.768362 0.363636
vt 0.858757 -0.000000
vt 0.768362 0.090909
vt 0.768362 -0.000000
vt 0.858757 0.272727
vt 0.903955 0.272727
vt 0.858757 0.090909
vt 0.903955 0.090909
vt 0.723164 0.090909
vt 0.768362 0.272727
vt 0.723164 0.272727
vt 0.570621 0.920455
vt 0.632768 0.909091
vt 0.627119 0.920455
vt 0.367232 0.920455
vt 0.423729 0.920455
vt 0.435028 0.920455
vt 0.491525 0.920455
vt 0.367232 0.943182
vt 0.435028 0.943182
vt 0.570621 0.943182
vt 0.418079 0.886364
vt 0.474576 0.772727
vt 0.474576 0.886364
vt 0.451977 0.681818
vt 0.384181 0.545455
vt 0.451977 0.545455
vt 0.474576 0.545455
vt 0.474576 0.681818
vt 0.384181 0.681818
vt 0.451977 0.727273
vt 0.384181 0.727273
vt 0.384181 0.500000
vt 0.451977 0.500000
vt 0.361582 0.681818
vt 0.361582 0.545455
vt 0.601695 0.750000
vt 0.590395 0.590909
vt 0.601695 0.590909
vt 0.519774 0.636364
vt 0.542373 0.818182
vt 0.519774 0.818182
vt 0.542373 0.568182
vt 0.519774 0.568182
vt 0.519774 0.886364
vt 0.542373 0.886364
vt 0.576271 0.818182
vt 0.542373 0.636364
vt 0.576271 0.636364
vt 0.485876 0.636364
vt 0.485876 0.818182
vt 0.576271 0.590909
vt 0.576271 0.750000
vt 0.590395 0.568182
vt 0.587571 0.568182
vt 0.587571 0.772727
vt 0.590395 0.772727
vt 0.457627 0.738636
vt 0.389830 0.727273
vt 0.457627 0.727273
vt 0.361582 0.738636
vt 0.361582 0.727273
vt 0.485876 0.738636
vt 0.463277 0.727273
vt 0.485876 0.727273
vt 0.463277 0.738636
vt 0.384181 0.738636
vt 0.389830 0.772727
vt 0.457627 0.761364
vt 0.457627 0.772727
vt 0.361582 0.761364
vt 0.384181 0.772727
vt 0.361582 0.772727
vt 0.463277 0.772727
vt 0.485876 0.761364
vt 0.485876 0.772727
vt 0.463277 0.761364
vt 0.384181 0.761364
vt 0.389830 0.761364
vt 0.389830 0.738636
vt 0.508475 0.181818
vt 0.677966 0.568182
vt 0.508475 0.568182
vt 0.926566 0.169597
vt 0.910031 0.136340
vt 0.903979 0.090909
vt 0.926566 0.012221
vt 0.949153 0.000048
vt 0.971740 0.012221
vt 0.994327 0.090909
vt 0.971740 0.169597
vt 0.601695 0.761364
vt 0.559322 0.943182
vt 0.423729 0.943182
vt 0.491525 0.943182
vt 0.627119 0.943182
vt 0.418079 0.772727
vt 1.000000 0.454545
vt 0.994350 0.409091
vt 1.000000 0.409091
vt 1.000000 0.227273
vt 0.994350 0.181818
vt 1.000000 0.181818
vt 1.000000 0.318182
vt 0.994350 0.272727
vt 1.000000 0.272727
vt 1.000000 0.090909
vt 0.994350 0.045455
vt 1.000000 0.045455
vt 1.000000 0.500000
vt 0.994350 0.454545
vt 0.994350 0.227273
vt 1.000000 0.363636
vt 0.994350 0.318182
vt 1.000000 0.136364
vt 0.994350 0.090909
vt 1.000000 0.545455
vt 0.994350 0.500000
vt 0.994350 0.363636
vt 0.994350 0.136364
vt 0.994350 0.000000
vt 1.000000 0.000000
vt 0.884181 0.823864
vt 0.892655 0.795455
vt 0.892655 0.829545
vt 0.909605 0.812500
vt 0.901130 0.795455
vt 0.909605 0.795455
vt 0.875706 0.812500
vt 0.867232 0.795455
vt 0.875706 0.795455
vt 0.884181 0.795455
vt 0.901130 0.823864
vt 0.918079 0.795455
vt 0.909605 0.778409
vt 0.918079 0.789773
vt 0.901130 0.767045
vt 0.875706 0.778409
vt 0.884181 0.767045
vt 0.901130 0.875000
vt 0.901130 0.869318
vt 0.909605 0.875000
vt 0.901130 0.880682
vt 0.918079 0.869318
vt 0.918079 0.875000
vt 0.918079 0.880682
vt 0.875706 0.875000
vt 0.867232 0.846591
vt 0.875706 0.840909
vt 0.892655 0.875000
vt 0.884181 0.846591
vt 0.892655 0.857955
vt 0.926554 0.857955
vt 0.926554 0.875000
vt 0.909605 0.943182
vt 0.918079 0.909091
vt 0.918079 0.943182
vt 0.892655 0.943182
vt 0.901130 0.909091
vt 0.901130 0.943182
vt 0.875706 0.943182
vt 0.884181 0.909091
vt 0.884181 0.943182
vt 0.646893 0.568182
vt 0.601695 0.585227
vt 0.601695 0.568182
vt 0.601695 0.687500
vt 0.601695 0.670455
vt 0.646893 0.636364
vt 0.601695 0.653409
vt 0.601695 0.636364
vt 0.646893 0.619318
vt 0.601695 0.619318
vt 0.646893 0.585227
vt 0.601695 0.602273
vt 0.646893 0.687500
vt 0.646893 0.653409
vt 0.694915 0.909091
vt 0.694915 0.897727
vt 0.697740 0.897727
vt 0.692090 0.897727
vt 0.694915 0.818182
vt 0.697740 0.829545
vt 0.694915 0.829545
vt 0.692090 0.829545
vt 0.694915 0.840909
vt 0.706215 0.852273
vt 0.694915 0.852273
vt 0.694915 0.875000
vt 0.706215 0.863636
vt 0.706215 0.875000
vt 0.694915 0.886364
vt 0.700565 0.840909
vt 0.694915 0.863636
vt 0.700565 0.886364
vt 0.689266 0.840909
vt 0.683616 0.852273
vt 0.689266 0.886364
vt 0.683616 0.863636
vt 0.683616 0.875000
vt 0.632768 0.829545
vt 0.683616 0.840909
vt 0.632768 0.840909
vt 0.632768 0.852273
vt 0.632768 0.863636
vt 0.632768 0.875000
vt 0.683616 0.886364
vt 0.632768 0.897727
vt 0.683616 0.909091
vt 0.632768 0.818182
vt 0.683616 0.829545
vt 0.683616 0.897727
vt 0.632768 0.795455
vt 0.700565 0.806818
vt 0.632768 0.806818
vt 0.632768 0.772727
vt 0.700565 0.784091
vt 0.632768 0.784091
vt 0.632768 0.750000
vt 0.700565 0.761364
vt 0.632768 0.761364
vt 0.632768 0.727273
vt 0.700565 0.738636
vt 0.632768 0.738636
vt 0.700565 0.818182
vt 0.700565 0.795455
vt 0.700565 0.772727
vt 0.700565 0.750000
vt 0.711864 0.784091
vt 0.706215 0.795455
vt 0.711864 0.806818
vt 0.709040 0.806818
vt 0.706215 0.750000
vt 0.711864 0.738636
vt 0.711864 0.750000
vt 0.711864 0.772727
vt 0.711864 0.795455
vt 0.711864 0.761364
vt 0.717514 0.795455
vt 0.723164 0.772727
vt 0.714689 0.738636
vt 0.717514 0.750000
vt 0.714689 0.806818
vt 0.723164 0.784091
vt 0.723164 0.761364
vt 0.709040 0.738636
vt 0.711864 0.727273
vt 0.711864 0.818182
vt 0.723164 0.750000
vt 0.742938 0.761364
vt 0.742938 0.784091
vt 0.723164 0.727273
vt 0.742938 0.738636
vt 0.723164 0.738636
vt 0.723164 0.806818
vt 0.742938 0.818182
vt 0.723164 0.818182
vt 0.723164 0.795455
vt 0.742938 0.806818
vt 0.742938 0.750000
vt 0.742938 0.772727
vt 0.742938 0.795455
vt 0.858757 0.943182
vt 0.867232 0.909091
vt 0.867232 0.943182
vt 0.926554 0.909091
vt 0.926554 0.943182
vt 0.909605 0.909091
vt 0.892655 0.909091
vt 0.875706 0.909091
vt 0.892655 0.892045
vt 0.867232 0.903409
vt 0.884181 0.875000
vt 0.926554 0.892045
vt 0.858757 0.892045
vt 0.867232 0.875000
vt 0.884181 0.903409
vt 0.858757 0.875000
vt 0.926554 0.647727
vt 0.935028 0.619318
vt 0.935028 0.647727
vt 0.943503 0.647727
vt 0.951977 0.619318
vt 0.951977 0.647727
vt 0.968927 0.647727
vt 0.960452 0.630682
vt 0.968927 0.642045
vt 0.951977 0.676136
vt 0.926554 0.664773
vt 0.935028 0.676136
vt 0.985876 0.653409
vt 0.994350 0.647727
vt 0.994350 0.664773
vt 0.960452 0.664773
vt 0.960452 0.647727
vt 0.943503 0.681818
vt 0.968927 0.653409
vt 0.935028 0.715909
vt 0.943503 0.715909
vt 0.951977 0.715909
vt 0.960452 0.681818
vt 0.960452 0.715909
vt 0.968927 0.715909
vt 0.977401 0.681818
vt 0.977401 0.715909
vt 0.985876 0.715909
vt 0.994350 0.681818
vt 0.994350 0.715909
vt 0.926554 0.715909
vt 0.935028 0.681818
vt 0.951977 0.681818
vt 0.968927 0.681818
vt 0.985876 0.681818
vt 0.985876 0.647727
vt 0.994350 0.630682
vt 0.943503 0.613636
vt 0.977401 0.647727
vt 0.985876 0.642045
vt 0.943503 0.409091
vt 0.951977 0.380682
vt 0.951977 0.409091
vt 0.960452 0.409091
vt 0.968927 0.380682
vt 0.968927 0.409091
vt 0.985876 0.409091
vt 0.977401 0.392045
vt 0.985876 0.403409
vt 0.960452 0.443182
vt 0.968927 0.437500
vt 0.951977 0.437500
vt 0.943503 0.426136
vt 0.935028 0.409091
vt 0.977401 0.409091
vt 0.977401 0.426136
vt 0.985876 0.414773
vt 0.935028 0.613636
vt 0.943503 0.443182
vt 0.926554 0.613636
vt 0.935028 0.443182
vt 0.985876 0.613636
vt 0.994350 0.443182
vt 0.994350 0.613636
vt 0.977401 0.613636
vt 0.985876 0.443182
vt 0.968927 0.613636
vt 0.977401 0.443182
vt 0.960452 0.613636
vt 0.968927 0.443182
vt 0.951977 0.613636
vt 0.951977 0.443182
vt 0.943503 0.392045
vt 0.960452 0.375000
vt 0.935028 0.414773
vt 0.926554 0.409091
vt 0.935028 0.403409
vt 0.951977 0.375000
vt 0.960452 0.181818
vt 0.968927 0.375000
vt 0.977401 0.181818
vt 0.977401 0.375000
vt 0.935028 0.375000
vt 0.943503 0.181818
vt 0.943503 0.375000
vt 0.985876 0.375000
vt 0.994350 0.375000
vt 0.926554 0.375000
vt 0.935028 0.181818
vt 0.951977 0.181818
vt 0.968927 0.181818
vt 0.985876 0.181818
vt 0.918079 0.801136
vt 0.867232 0.840909
vt 0.875706 0.829545
vt 0.858757 0.840909
vt 0.867232 0.829545
vt 0.926554 0.840909
vt 0.918079 0.829545
vt 0.926554 0.829545
vt 0.909605 0.840909
vt 0.918079 0.840909
vt 0.901130 0.840909
vt 0.909605 0.829545
vt 0.892655 0.840909
vt 0.901130 0.829545
vt 0.884181 0.840909
vt 0.884181 0.829545
vt 0.892655 0.761364
vt 0.867232 0.801136
vt 0.858757 0.795455
vt 0.867232 0.789773
vt 0.926554 0.795455
vt 0.884181 0.761364
vt 0.892655 0.636364
vt 0.901130 0.761364
vt 0.909605 0.636364
vt 0.909605 0.761364
vt 0.867232 0.761364
vt 0.875706 0.636364
vt 0.875706 0.761364
vt 0.918079 0.761364
vt 0.926554 0.636364
vt 0.926554 0.761364
vt 0.858757 0.761364
vt 0.867232 0.636364
vt 0.884181 0.636364
vt 0.901130 0.636364
vt 0.918079 0.636364
vt 0.994350 0.545455
vt 0.646893 0.704545
vt 0.683616 0.818182
vt 0.700565 0.727273
vt 0.742938 0.727273
vt 0.858757 0.909091
vt 0.858757 0.857955
vt 0.926554 0.630682
vt 0.926554 0.681818
vt 0.926554 0.443182
vt 0.926554 0.181818
vt 0.858757 0.829545
s 1
f 27/23/11 26/24/11 25/25/11
f 30/26/12 31/27/12 29/28/12
f 27/29/13 32/30/13 28/31/13
f 26/32/14 29/28/14 25/33/14
f 28/34/15 30/26/15 26/24/15
f 25/35/16 31/27/16 27/36/16
f 50/37/17 53/38/17 49/39/17
f 38/37/17 41/38/17 37/39/17
f 36/40/15 39/41/15 34/42/15
f 33/43/16 37/44/16 35/23/16
f 35/31/13 40/45/13 36/46/13
f 34/42/14 38/47/14 33/43/14
f 43/48/12 41/38/12 42/49/12
f 37/50/13 44/51/13 40/45/13
f 39/41/14 42/49/14 38/47/14
f 40/52/18 43/48/18 39/53/18
f 48/40/15 51/41/15 46/42/15
f 45/43/16 49/44/16 47/23/16
f 47/31/13 52/45/13 48/46/13
f 46/42/14 50/47/14 45/43/14
f 55/48/12 53/38/12 54/49/12
f 49/50/13 56/51/13 52/45/13
f 51/41/14 54/49/14 50/47/14
f 52/52/18 55/48/18 51/53/18
f 62/37/17 65/38/17 61/39/17
f 60/40/15 63/41/15 58/42/15
f 57/43/16 61/44/16 59/23/16
f 59/31/13 64/45/13 60/46/13
f 58/42/14 62/47/14 57/43/14
f 67/48/12 65/38/12 66/49/12
f 61/50/13 68/51/13 64/45/13
f 63/41/14 66/49/14 62/47/14
f 64/52/18 67/48/18 63/53/18
f 74/37/17 77/38/17 73/39/17
f 72/40/15 75/41/15 70/42/15
f 69/43/16 73/44/16 71/23/16
f 71/31/13 76/45/13 72/46/13
f 70/42/14 74/47/14 69/43/14
f 79/48/12 77/38/12 78/49/12
f 73/50/13 80/51/13 76/45/13
f 75/41/14 78/49/14 74/47/14
f 76/52/18 79/48/18 75/53/18
f 83/54/15 82/55/15 81/56/15
f 83/54/18 86/57/18 84/58/18
f 85/59/12 88/60/12 86/57/12
f 87/61/17 90/62/17 88/60/17
f 89/63/16 92/64/16 90/62/16
f 97/62/17 102/65/17 96/60/17
f 95/57/18 100/66/18 94/58/18
f 98/64/16 103/67/16 97/62/16
f 96/60/12 101/68/12 95/57/12
f 100/66/15 93/55/15 94/58/15
f 109/69/17 114/61/17 108/70/17
f 107/71/18 112/54/18 106/72/18
f 110/73/16 115/63/16 109/69/16
f 108/70/12 113/59/12 107/71/12
f 112/54/15 105/74/15 106/72/15
f 139/75/14 129/76/14 133/77/14
f 144/78/13 142/75/13 152/76/13
f 249/79/15 271/80/15 251/81/15
f 252/82/16 269/83/16 250/84/16
f 250/84/13 272/85/13 249/79/13
f 251/81/14 270/86/14 252/87/14
f 171/88/15 177/89/15 169/90/15
f 165/91/15 176/92/15 167/93/15
f 167/94/14 175/95/14 168/96/14
f 168/97/16 173/98/16 166/99/16
f 166/100/13 174/101/13 165/102/13
f 170/103/12 173/104/12 169/105/12
f 171/106/12 176/107/12 172/108/12
f 169/90/12 175/109/12 171/88/12
f 172/110/12 174/111/12 170/112/12
f 177/89/12 180/113/12 178/114/12
f 169/105/14 178/114/14 170/103/14
f 170/112/16 180/113/16 172/110/16
f 172/108/13 179/115/13 171/106/13
f 181/116/12 184/117/12 182/118/12
f 191/88/15 197/89/15 189/90/15
f 185/91/15 196/92/15 187/93/15
f 187/94/14 195/95/14 188/96/14
f 188/97/16 193/98/16 186/99/16
f 186/100/13 194/101/13 185/102/13
f 190/103/12 193/104/12 189/105/12
f 191/106/12 196/107/12 192/108/12
f 189/90/12 195/109/12 191/88/12
f 192/110/12 194/111/12 190/112/12
f 197/89/12 200/113/12 198/114/12
f 189/105/14 198/114/14 190/103/14
f 190/112/16 200/113/16 192/110/16
f 192/108/13 199/115/13 191/106/13
f 201/116/12 204/117/12 202/118/12
f 211/88/15 217/89/15 209/90/15
f 205/91/15 216/92/15 207/93/15
f 207/94/14 215/95/14 208/96/14
f 208/97/16 213/98/16 206/99/16
f 206/100/13 214/101/13 205/102/13
f 210/103/12 213/104/12 209/105/12
f 211/106/12 216/107/12 212/108/12
f 209/90/12 215/109/12 211/88/12
f 212/110/12 214/111/12 210/112/12
f 217/89/12 220/113/12 218/114/12
f 209/105/14 218/114/14 210/103/14
f 210/112/16 220/113/16 212/110/16
f 212/108/13 219/115/13 211/106/13
f 221/116/12 224/117/12 222/118/12
f 231/88/15 237/89/15 229/90/15
f 225/91/15 236/92/15 227/93/15
f 227/94/14 235/95/14 228/96/14
f 228/97/16 233/98/16 226/99/16
f 226/100/13 234/101/13 225/102/13
f 230/103/12 233/104/12 229/105/12
f 231/106/12 236/107/12 232/108/12
f 229/90/12 235/109/12 231/88/12
f 232/110/12 234/111/12 230/112/12
f 237/89/12 240/113/12 238/114/12
f 229/105/14 238/114/14 230/103/14
f 230/112/16 240/113/16 232/110/16
f 232/108/13 239/115/13 231/106/13
f 241/116/12 244/117/12 242/118/12
f 247/119/14 276/120/14 248/121/14
f 333/122/12 331/123/12 332/124/12
f 259/125/12 258/126/12 260/127/12
f 254/128/14 260/127/14 253/129/14
f 255/130/13 257/131/13 256/132/13
f 253/133/16 258/126/16 255/134/16
f 256/135/15 259/125/15 254/136/15
f 265/137/15 262/138/15 267/139/15
f 268/136/16 263/140/16 266/135/16
f 266/141/13 264/142/13 265/143/13
f 267/144/14 261/145/14 268/146/14
f 262/138/12 263/140/12 261/145/12
f 341/122/12 339/123/12 340/124/12
f 247/147/12 270/148/12 245/149/12
f 245/150/12 271/80/12 246/151/12
f 246/152/12 272/85/12 248/153/12
f 248/121/12 269/83/12 247/119/12
f 246/151/13 274/154/13 245/150/13
f 248/153/16 275/155/16 246/152/16
f 245/149/15 273/156/15 247/147/15
f 277/157/12 280/158/12 279/159/12
f 312/160/12 313/161/12 311/162/12
f 312/160/13 318/163/13 317/164/13
f 314/165/16 317/166/16 315/167/16
f 311/162/15 316/168/15 318/169/15
f 313/161/14 315/170/14 316/171/14
f 327/172/13 334/173/13 330/174/13
f 325/175/12 323/176/12 324/177/12
f 322/178/15 325/175/15 320/179/15
f 319/180/16 323/176/16 321/181/16
f 321/182/13 326/183/13 322/184/13
f 320/185/14 324/177/14 319/186/14
f 329/187/14 332/124/14 328/188/14
f 330/189/15 333/122/15 329/190/15
f 328/191/16 331/123/16 327/192/16
f 335/172/13 342/173/13 338/174/13
f 337/187/14 340/124/14 336/188/14
f 338/189/15 341/122/15 337/190/15
f 336/191/16 339/123/16 335/192/16
f 349/122/12 347/123/12 348/124/12
f 343/172/13 350/173/13 346/174/13
f 345/187/14 348/124/14 344/188/14
f 346/189/15 349/122/15 345/190/15
f 344/191/16 347/123/16 343/192/16
f 357/122/12 355/123/12 356/124/12
f 351/172/13 358/173/13 354/174/13
f 353/187/14 356/124/14 352/188/14
f 354/189/15 357/122/15 353/190/15
f 352/191/16 355/123/16 351/192/16
f 365/122/12 363/123/12 364/124/12
f 359/172/13 366/173/13 362/174/13
f 361/187/14 364/124/14 360/188/14
f 362/189/15 365/122/15 361/190/15
f 360/191/16 363/123/16 359/192/16
f 577/193/15 574/194/15 573/195/15
f 574/167/15 580/196/15 575/197/15
f 582/198/15 573/199/15 576/200/15
f 573/199/15 581/201/15 577/195/15
f 578/194/15 579/202/15 574/167/15
f 585/203/16 588/204/16 583/205/16
f 590/206/16 585/207/16 586/208/16
f 583/209/16 592/210/16 584/211/16
f 583/209/16 588/205/16 591/212/16
f 587/203/16 585/207/16 589/213/16
f 598/194/15 599/202/15 594/167/15
f 591/212/19 577/193/19 581/201/19
f 593/199/15 601/201/15 597/195/15
f 592/210/13 581/201/13 582/198/13
f 589/213/14 580/196/14 579/202/14
f 587/214/20 579/202/20 578/215/20
f 588/204/12 578/215/12 577/193/12
f 602/198/15 593/199/15 596/200/15
f 594/167/15 600/196/15 595/197/15
f 597/193/15 594/194/15 593/195/15
f 605/203/16 608/204/16 603/205/16
f 610/206/16 605/207/16 606/208/16
f 603/209/16 612/210/16 604/211/16
f 603/209/16 608/205/16 611/212/16
f 607/203/16 605/207/16 609/213/16
f 611/212/19 597/193/19 601/201/19
f 612/210/13 601/201/13 602/198/13
f 609/213/14 600/196/14 599/202/14
f 607/214/20 599/202/20 598/215/20
f 608/204/12 598/215/12 597/193/12
f 27/23/11 28/34/11 26/24/11
f 30/26/12 32/30/12 31/27/12
f 27/29/13 31/27/13 32/30/13
f 26/32/14 30/26/14 29/28/14
f 28/34/15 32/30/15 30/26/15
f 25/35/16 29/28/16 31/27/16
f 50/37/17 54/49/17 53/38/17
f 38/37/17 42/49/17 41/38/17
f 36/40/15 40/216/15 39/41/15
f 33/43/16 38/47/16 37/44/16
f 35/31/13 37/50/13 40/45/13
f 34/42/14 39/41/14 38/47/14
f 43/48/12 44/51/12 41/38/12
f 37/50/13 41/38/13 44/51/13
f 39/41/14 43/48/14 42/49/14
f 40/52/18 44/51/18 43/48/18
f 48/40/15 52/216/15 51/41/15
f 45/43/16 50/47/16 49/44/16
f 47/31/13 49/50/13 52/45/13
f 46/42/14 51/41/14 50/47/14
f 55/48/12 56/51/12 53/38/12
f 49/50/13 53/38/13 56/51/13
f 51/41/14 55/48/14 54/49/14
f 52/52/18 56/51/18 55/48/18
f 62/37/17 66/49/17 65/38/17
f 60/40/15 64/216/15 63/41/15
f 57/43/16 62/47/16 61/44/16
f 59/31/13 61/50/13 64/45/13
f 58/42/14 63/41/14 62/47/14
f 67/48/12 68/51/12 65/38/12
f 61/50/13 65/38/13 68/51/13
f 63/41/14 67/48/14 66/49/14
f 64/52/18 68/51/18 67/48/18
f 74/37/17 78/49/17 77/38/17
f 72/40/15 76/216/15 75/41/15
f 69/43/16 74/47/16 73/44/16
f 71/31/13 73/50/13 76/45/13
f 70/42/14 75/41/14 74/47/14
f 79/48/12 80/51/12 77/38/12
f 73/50/13 77/38/13 80/51/13
f 75/41/14 79/48/14 78/49/14
f 76/52/18 80/51/18 79/48/18
f 83/54/15 84/58/15 82/55/15
f 83/54/18 85/59/18 86/57/18
f 85/59/12 87/61/12 88/60/12
f 87/61/17 89/63/17 90/62/17
f 89/63/16 91/217/16 92/64/16
f 97/62/17 103/67/17 102/65/17
f 95/57/18 101/68/18 100/66/18
f 98/64/16 104/218/16 103/67/16
f 96/60/12 102/65/12 101/68/12
f 100/66/15 99/40/15 93/55/15
f 109/69/17 115/63/17 114/61/17
f 107/71/18 113/59/18 112/54/18
f 110/73/16 116/217/16 115/63/16
f 108/70/12 114/61/12 113/59/12
f 112/54/15 111/56/15 105/74/15
f 129/76/14 130/219/14 131/220/14
f 131/220/14 132/221/14 133/77/14
f 133/77/14 134/222/14 137/78/14
f 134/222/14 135/223/14 137/78/14
f 135/223/14 136/224/14 137/78/14
f 137/78/14 138/225/14 139/75/14
f 139/75/14 140/226/14 129/76/14
f 129/76/14 131/220/14 133/77/14
f 137/78/14 139/75/14 133/77/14
f 152/76/13 151/219/13 150/220/13
f 150/220/13 149/221/13 148/77/13
f 148/77/13 147/222/13 146/223/13
f 146/223/13 145/224/13 144/78/13
f 144/78/13 143/225/13 142/75/13
f 142/75/13 141/226/13 152/76/13
f 152/76/13 150/220/13 148/77/13
f 148/77/13 146/223/13 152/76/13
f 146/223/13 144/78/13 152/76/13
f 249/79/15 272/85/15 271/80/15
f 252/82/16 270/148/16 269/83/16
f 250/84/13 269/83/13 272/85/13
f 251/81/14 271/80/14 270/86/14
f 171/88/15 179/115/15 177/89/15
f 165/91/15 174/111/15 176/92/15
f 167/94/14 176/107/14 175/95/14
f 168/97/16 175/109/16 173/98/16
f 166/100/13 173/104/13 174/101/13
f 170/103/12 174/101/12 173/104/12
f 171/106/12 175/95/12 176/107/12
f 169/90/12 173/98/12 175/109/12
f 172/110/12 176/92/12 174/111/12
f 177/89/12 179/115/12 180/113/12
f 169/105/14 177/89/14 178/114/14
f 170/112/16 178/114/16 180/113/16
f 172/108/13 180/113/13 179/115/13
f 181/116/12 183/227/12 184/117/12
f 191/88/15 199/115/15 197/89/15
f 185/91/15 194/111/15 196/92/15
f 187/94/14 196/107/14 195/95/14
f 188/97/16 195/109/16 193/98/16
f 186/100/13 193/104/13 194/101/13
f 190/103/12 194/101/12 193/104/12
f 191/106/12 195/95/12 196/107/12
f 189/90/12 193/98/12 195/109/12
f 192/110/12 196/92/12 194/111/12
f 197/89/12 199/115/12 200/113/12
f 189/105/14 197/89/14 198/114/14
f 190/112/16 198/114/16 200/113/16
f 192/108/13 200/113/13 199/115/13
f 201/116/12 203/227/12 204/117/12
f 211/88/15 219/115/15 217/89/15
f 205/91/15 214/111/15 216/92/15
f 207/94/14 216/107/14 215/95/14
f 208/97/16 215/109/16 213/98/16
f 206/100/13 213/104/13 214/101/13
f 210/103/12 214/101/12 213/104/12
f 211/106/12 215/95/12 216/107/12
f 209/90/12 213/98/12 215/109/12
f 212/110/12 216/92/12 214/111/12
f 217/89/12 219/115/12 220/113/12
f 209/105/14 217/89/14 218/114/14
f 210/112/16 218/114/16 220/113/16
f 212/108/13 220/113/13 219/115/13
f 221/116/12 223/227/12 224/117/12
f 231/88/15 239/115/15 237/89/15
f 225/91/15 234/111/15 236/92/15
f 227/94/14 236/107/14 235/95/14
f 228/97/16 235/109/16 233/98/16
f 226/100/13 233/104/13 234/101/13
f 230/103/12 234/101/12 233/104/12
f 231/106/12 235/95/12 236/107/12
f 229/90/12 233/98/12 235/109/12
f 232/110/12 236/92/12 234/111/12
f 237/89/12 239/115/12 240/113/12
f 229/105/14 237/89/14 238/114/14
f 230/112/16 238/114/16 240/113/16
f 232/108/13 240/113/13 239/115/13
f 241/116/12 243/227/12 244/117/12
f 247/119/14 273/228/14 276/120/14
f 333/122/12 334/173/12 331/123/12
f 259/125/12 257/131/12 258/126/12
f 254/128/14 259/125/14 260/127/14
f 255/130/13 258/126/13 257/131/13
f 253/133/16 260/127/16 258/126/16
f 256/135/15 257/131/15 259/125/15
f 265/137/15 264/142/15 262/138/15
f 268/136/16 261/145/16 263/140/16
f 266/141/13 263/140/13 264/142/13
f 267/144/14 262/138/14 261/145/14
f 262/138/12 264/142/12 263/140/12
f 341/122/12 342/173/12 339/123/12
f 247/147/12 269/83/12 270/148/12
f 245/150/12 270/86/12 271/80/12
f 246/152/12 271/80/12 272/85/12
f 248/121/12 272/85/12 269/83/12
f 246/151/13 275/229/13 274/154/13
f 248/153/16 276/230/16 275/155/16
f 245/149/15 274/231/15 273/156/15
f 277/157/12 278/232/12 280/158/12
f 312/160/12 314/165/12 313/161/12
f 312/160/13 311/162/13 318/163/13
f 314/165/16 312/160/16 317/166/16
f 311/162/15 313/161/15 316/168/15
f 313/161/14 314/165/14 315/170/14
f 327/172/13 331/123/13 334/173/13
f 325/175/12 326/183/12 323/176/12
f 322/178/15 326/183/15 325/175/15
f 319/180/16 324/177/16 323/176/16
f 321/182/13 323/176/13 326/183/13
f 320/185/14 325/175/14 324/177/14
f 329/187/14 333/122/14 332/124/14
f 330/189/15 334/173/15 333/122/15
f 328/191/16 332/124/16 331/123/16
f 335/172/13 339/123/13 342/173/13
f 337/187/14 341/122/14 340/124/14
f 338/189/15 342/173/15 341/122/15
f 336/191/16 340/124/16 339/123/16
f 349/122/12 350/173/12 347/123/12
f 343/172/13 347/123/13 350/173/13
f 345/187/14 349/122/14 348/124/14
f 346/189/15 350/173/15 349/122/15
f 344/191/16 348/124/16 347/123/16
f 357/122/12 358/173/12 355/123/12
f 351/172/13 355/123/13 358/173/13
f 353/187/14 357/122/14 356/124/14
f 354/189/15 358/173/15 357/122/15
f 352/191/16 356/124/16 355/123/16
f 365/122/12 366/173/12 363/123/12
f 359/172/13 363/123/13 366/173/13
f 361/187/14 365/122/14 364/124/14
f 362/189/15 366/173/15 365/122/15
f 360/191/16 364/124/16 363/123/16
f 577/193/15 578/215/15 574/194/15
f 574/167/15 579/202/15 580/196/15
f 582/198/15 581/201/15 573/199/15
f 585/203/16 587/214/16 588/204/16
f 590/206/16 589/213/16 585/207/16
f 583/209/16 591/212/16 592/210/16
f 591/212/19 588/204/19 577/193/19
f 592/210/13 591/212/13 581/201/13
f 589/213/14 590/206/14 580/196/14
f 587/214/20 589/213/20 579/202/20
f 588/204/12 587/214/12 578/215/12
f 602/198/15 601/201/15 593/199/15
f 594/167/15 599/202/15 600/196/15
f 597/193/15 598/215/15 594/194/15
f 605/203/16 607/214/16 608/204/16
f 610/206/16 609/213/16 605/207/16
f 603/209/16 611/212/16 612/210/16
f 611/212/19 608/204/19 597/193/19
f 612/210/13 611/212/13 601/201/13
f 609/213/14 610/206/14 600/196/14
f 607/214/20 609/213/20 599/202/20
f 608/204/12 607/214/12 598/215/12
f 121/233/21 132/234/16 120/235/16
f 128/236/22 139/237/23 127/238/23
f 118/239/24 129/240/12 117/241/12
f 125/242/25 136/243/26 124/244/26
f 122/245/27 133/246/21 121/233/21
f 117/241/12 140/247/22 128/236/22
f 119/248/28 130/249/24 118/239/24
f 126/250/15 137/251/25 125/242/25
f 123/252/11 134/253/27 122/245/27
f 120/235/16 131/254/28 119/248/28
f 127/238/23 138/255/15 126/250/15
f 124/244/26 135/256/11 123/257/11
f 157/244/27 146/256/11 158/257/11
f 155/250/16 142/237/28 143/255/16
f 161/235/15 150/254/23 162/248/23
f 158/252/11 147/253/26 159/245/26
f 155/250/16 144/251/21 156/242/21
f 162/248/23 151/249/22 163/239/22
f 164/241/12 141/247/24 153/236/24
f 159/245/26 148/246/25 160/233/25
f 156/242/21 145/243/27 157/244/27
f 163/239/22 152/240/12 164/241/12
f 153/236/24 142/237/28 154/238/28
f 160/233/25 149/234/15 161/235/15
f 564/258/29 550/259/30 563/260/31
f 561/261/32 549/262/33 548/263/34
f 544/264/35 546/265/36 545/266/37
f 564/258/29 545/266/37 281/267/38
f 563/260/31 549/262/33 562/268/39
f 547/269/40 285/270/41 286/271/42
f 550/259/30 284/272/43 549/262/33
f 281/267/38 288/273/44 282/274/45
f 307/275/46 488/276/47 302/277/48
f 301/278/49 307/275/46 302/277/48
f 489/279/50 306/280/51 302/277/48
f 303/281/52 302/277/48 306/280/51
f 310/282/19 484/283/53 485/284/54
f 308/285/55 486/286/56 487/287/57
f 306/280/51 490/288/58 305/289/59
f 291/290/14 303/291/52 290/292/60
f 293/293/15 301/294/49 292/295/30
f 295/296/13 299/297/61 294/298/62
f 379/299/11 372/300/63 371/301/11
f 377/96/16 370/302/64 369/303/16
f 375/304/12 368/305/65 367/306/12
f 382/307/66 367/306/12 374/308/66
f 380/309/63 373/310/15 372/300/63
f 378/311/64 371/117/11 370/302/64
f 376/312/65 369/303/16 368/305/65
f 381/94/15 374/308/66 373/310/15
f 395/299/11 388/300/63 387/301/11
f 393/96/16 386/302/64 385/303/16
f 391/304/12 384/305/65 383/306/12
f 398/307/66 383/306/12 390/308/66
f 396/309/63 389/310/15 388/300/63
f 394/311/64 387/117/11 386/302/64
f 392/312/65 385/303/16 384/305/65
f 397/94/15 390/308/66 389/310/15
f 411/299/11 404/300/63 403/301/11
f 409/96/16 402/302/64 401/303/16
f 407/304/12 400/305/65 399/306/12
f 414/307/66 399/306/12 406/308/66
f 412/309/63 405/310/15 404/300/63
f 410/311/64 403/117/11 402/302/64
f 408/312/65 401/303/16 400/305/65
f 413/94/15 406/308/66 405/310/15
f 429/313/67 428/314/36 415/315/68
f 429/313/67 430/316/69 428/314/36
f 429/317/67 421/318/70 422/319/40
f 422/319/40 436/320/42 429/317/67
f 423/321/34 419/322/71 424/323/72
f 426/324/73 418/325/74 417/326/75
f 427/327/37 415/315/68 428/314/36
f 422/319/40 420/328/76 423/321/34
f 424/323/72 418/325/74 425/329/30
f 427/327/37 417/326/75 416/330/77
f 435/331/41 424/323/72 434/332/43
f 431/333/44 426/324/73 427/327/37
f 434/332/43 425/329/30 433/334/78
f 435/331/41 422/319/40 423/321/34
f 431/333/44 428/314/36 430/316/69
f 433/334/78 426/324/73 432/335/45
f 437/336/79 435/337/41 438/338/11
f 439/339/48 433/334/78 440/340/14
f 441/341/20 431/342/44 442/82/12
f 443/343/19 429/344/67 444/148/13
f 444/345/13 436/346/42 437/336/79
f 438/338/11 434/332/43 439/339/48
f 440/340/14 432/335/45 441/341/20
f 442/82/12 430/347/69 443/343/19
f 447/348/12 459/349/69 446/350/19
f 449/351/14 457/352/45 448/353/20
f 451/354/11 455/355/43 450/356/48
f 445/357/13 453/358/42 452/359/79
f 446/350/19 460/360/80 445/345/13
f 448/353/20 458/361/44 447/348/12
f 450/356/48 456/362/78 449/351/14
f 452/359/79 454/363/41 451/354/11
f 456/362/78 463/364/73 457/352/45
f 458/365/44 461/366/36 459/367/69
f 454/368/41 467/369/40 466/370/34
f 455/355/43 464/371/30 456/362/78
f 457/352/45 462/372/37 458/365/44
f 455/355/43 466/370/34 465/373/81
f 463/364/73 473/374/35 462/372/37
f 465/373/81 471/375/31 464/371/30
f 466/370/34 468/376/82 469/377/32
f 461/366/36 473/374/35 474/378/83
f 463/364/73 471/375/31 472/379/29
f 466/370/34 470/380/84 465/373/81
f 467/369/40 453/381/42 460/382/80
f 460/382/80 468/376/82 467/369/40
f 460/383/80 459/367/69 461/366/36
f 460/383/80 461/366/36 474/378/83
f 469/384/32 479/385/63 470/380/84
f 471/375/31 477/386/66 472/379/29
f 460/387/80 481/388/64 468/389/82
f 474/390/83 482/391/16 460/392/80
f 473/393/35 475/394/65 474/390/83
f 468/389/82 480/395/11 469/384/32
f 470/380/84 478/396/15 471/375/31
f 472/379/29 476/397/12 473/393/35
f 289/398/16 297/399/85 296/400/80
f 290/292/60 304/401/86 289/402/16
f 292/295/30 302/403/48 291/290/14
f 294/298/62 300/404/87 293/293/15
f 296/400/80 298/405/88 295/296/13
f 300/406/87 307/275/46 301/278/49
f 297/407/85 310/282/19 298/405/88
f 300/406/87 309/408/89 308/285/55
f 304/409/86 306/280/51 305/289/59
f 304/410/86 483/411/90 297/407/85
f 298/405/88 309/408/89 299/412/61
f 307/275/46 487/287/57 488/276/47
f 310/282/19 486/286/56 309/408/89
f 305/413/59 484/283/53 483/411/90
f 504/414/59 497/415/53 498/416/90
f 499/417/19 495/418/56 500/419/89
f 502/420/46 494/421/57 493/422/47
f 510/423/61 499/417/19 500/419/89
f 505/424/86 498/416/90 512/425/85
f 506/426/52 504/427/59 505/428/86
f 509/429/87 500/419/89 501/430/55
f 512/425/85 499/417/19 511/431/88
f 509/429/87 502/420/46 508/432/49
f 513/433/80 511/431/88 514/434/13
f 515/435/62 509/436/87 516/437/15
f 517/438/30 507/439/48 518/440/14
f 519/441/60 505/442/86 520/443/16
f 520/444/16 512/445/85 513/433/80
f 514/434/13 510/446/61 515/435/62
f 516/437/15 508/447/49 517/438/30
f 518/440/14 506/448/52 519/441/60
f 503/449/51 491/450/58 504/427/59
f 501/430/55 495/418/56 494/421/57
f 498/416/90 496/451/54 499/417/19
f 506/426/52 507/452/48 503/449/51
f 492/453/50 503/449/51 507/452/48
f 508/432/49 502/420/46 507/452/48
f 502/420/46 493/422/47 507/452/48
f 534/454/37 527/455/45 528/456/91
f 529/457/30 525/458/43 530/459/81
f 532/460/40 524/461/41 523/462/42
f 541/463/31 530/459/81 540/464/39
f 542/465/29 534/454/37 528/456/91
f 535/466/35 533/467/36 534/454/37
f 540/464/39 531/468/34 539/469/32
f 541/463/31 528/456/91 529/457/30
f 539/469/32 532/460/40 538/470/82
f 497/471/53 535/472/35 496/451/54
f 491/473/58 536/474/83 497/471/53
f 492/475/50 537/476/80 491/477/58
f 507/478/48 538/479/82 492/475/50
f 493/480/47 539/481/32 507/478/48
f 494/482/57 540/483/39 493/480/47
f 495/484/56 541/463/31 494/482/57
f 496/451/54 542/485/29 495/484/56
f 533/467/36 521/486/44 534/454/37
f 531/468/34 525/458/43 524/461/41
f 529/457/30 527/455/45 526/487/78
f 536/488/83 537/489/80 533/467/36
f 522/490/69 533/467/36 537/489/80
f 538/470/82 532/460/40 537/234/80
f 532/460/40 523/462/42 537/234/80
f 527/491/45 556/492/14 526/487/78
f 525/493/43 554/494/11 524/495/41
f 522/496/69 551/497/12 521/498/44
f 523/499/42 558/237/13 537/500/80
f 537/501/80 552/502/19 522/496/69
f 521/498/44 557/503/20 527/491/45
f 526/487/78 555/504/48 525/493/43
f 524/495/41 553/505/79 523/499/42
f 561/261/32 547/269/40 560/506/82
f 484/507/53 544/508/35 485/284/54
f 490/509/58 543/510/83 484/507/53
f 490/511/58 560/512/82 559/513/80
f 302/514/48 560/512/82 489/515/50
f 488/516/47 561/517/32 302/514/48
f 487/518/57 562/519/39 488/516/47
f 486/520/56 563/260/31 487/518/57
f 485/284/54 564/521/29 486/520/56
f 546/265/36 288/273/44 545/266/37
f 549/262/33 285/270/41 548/263/34
f 550/259/30 282/274/45 283/522/78
f 543/523/83 559/524/80 546/265/36
f 287/525/69 546/265/36 559/524/80
f 560/506/82 547/269/40 559/526/80
f 547/269/40 286/271/42 559/526/80
f 282/527/45 570/528/14 283/522/78
f 284/529/43 568/530/11 285/531/41
f 287/532/69 565/533/12 288/534/44
f 286/535/42 572/536/13 559/537/80
f 559/538/80 566/539/19 287/532/69
f 288/534/44 571/540/20 282/527/45
f 283/522/78 569/541/48 284/529/43
f 285/531/41 567/542/79 286/535/42
f 627/313/67 626/314/36 613/315/68
f 627/313/67 628/316/69 626/314/36
f 627/317/67 619/318/70 620/319/40
f 620/319/40 634/320/42 627/317/67
f 621/321/34 617/322/71 622/323/72
f 624/324/73 616/325/74 615/326/75
f 625/327/37 613/315/68 626/314/36
f 620/319/40 618/328/76 621/321/34
f 622/323/72 616/325/74 623/329/30
f 625/327/37 615/326/75 614/330/77
f 633/331/41 622/323/72 632/332/43
f 629/333/44 624/324/73 625/327/37
f 632/332/43 623/329/30 631/334/78
f 633/331/41 620/319/40 621/321/34
f 629/333/44 626/314/36 628/316/69
f 631/334/78 624/324/73 630/335/45
f 635/336/79 633/337/41 636/338/11
f 637/339/48 631/334/78 638/340/14
f 639/341/20 629/342/44 640/82/12
f 641/343/19 627/344/67 642/148/13
f 642/345/13 634/346/42 635/336/79
f 636/338/11 632/332/43 637/339/48
f 638/340/14 630/335/45 639/341/20
f 640/82/12 628/347/69 641/343/19
f 645/348/12 657/349/69 644/350/19
f 647/351/14 655/352/45 646/353/20
f 649/354/11 653/355/43 648/356/48
f 643/357/13 651/358/42 650/359/79
f 644/350/19 658/360/80 643/345/13
f 646/353/20 656/361/44 645/348/12
f 648/356/48 654/362/78 647/351/14
f 650/359/79 652/363/41 649/354/11
f 654/362/78 661/364/92 655/352/45
f 656/365/44 659/366/36 657/367/69
f 652/368/41 665/369/40 664/370/34
f 653/355/43 662/371/30 654/362/78
f 655/352/45 660/372/37 656/365/44
f 653/355/43 664/370/34 663/373/81
f 661/364/92 671/374/35 660/372/37
f 662/371/30 668/380/84 669/375/31
f 665/369/40 667/377/32 664/370/34
f 660/372/37 672/378/83 659/366/36
f 661/364/92 669/375/31 670/379/29
f 664/370/34 668/380/84 663/373/81
f 665/369/40 651/381/42 658/382/80
f 658/382/80 666/376/82 665/369/40
f 658/383/80 657/367/69 659/366/36
f 658/383/80 659/366/36 672/378/83
f 667/384/32 677/385/63 668/380/84
f 669/375/31 675/386/66 670/379/29
f 658/387/80 679/388/64 666/389/82
f 672/390/83 680/391/16 658/392/80
f 671/393/35 673/394/65 672/390/83
f 666/389/82 678/395/11 667/384/32
f 668/380/84 676/396/15 669/375/31
f 670/379/29 674/397/12 671/393/35
f 695/313/93 681/315/94 694/314/95
f 695/313/93 694/314/95 696/316/96
f 695/317/93 688/319/97 687/318/98
f 688/319/97 695/317/93 702/320/99
f 685/322/100 689/321/101 690/323/102
f 692/324/103 684/325/104 691/329/62
f 694/314/95 682/330/105 693/327/106
f 686/328/107 688/319/97 689/321/101
f 684/325/104 690/323/102 691/329/62
f 693/327/106 683/326/108 692/324/103
f 690/323/102 701/331/109 700/332/110
f 697/333/111 692/324/103 698/335/112
f 691/329/62 700/332/110 699/334/113
f 701/331/109 688/319/97 702/320/99
f 694/314/95 697/333/111 696/316/96
f 692/324/103 699/334/113 698/335/112
f 701/337/109 703/336/48 704/338/11
f 699/334/113 705/339/79 706/340/13
f 697/342/111 707/341/19 708/82/12
f 695/344/93 709/343/20 710/148/14
f 702/346/99 710/345/14 703/336/48
f 700/332/110 704/338/11 705/339/79
f 698/335/112 706/340/13 707/341/19
f 696/347/96 708/82/12 709/343/20
f 725/349/96 713/348/12 712/350/20
f 723/352/112 715/351/13 714/353/19
f 721/355/110 717/354/11 716/356/79
f 719/358/99 711/357/14 718/359/48
f 726/360/60 712/350/20 711/345/14
f 724/361/111 714/353/19 713/348/12
f 722/362/113 716/356/79 715/351/13
f 720/363/109 718/359/48 717/354/11
f 729/364/114 722/362/113 723/352/112
f 727/366/95 724/365/111 725/367/96
f 720/368/109 733/369/97 719/381/99
f 730/371/62 721/355/110 722/362/113
f 728/372/106 723/352/112 724/365/111
f 721/355/110 732/370/101 720/368/109
f 739/374/115 729/364/114 728/372/106
f 737/375/116 731/373/117 730/371/62
f 735/377/118 733/369/97 732/370/101
f 727/366/95 739/374/115 728/372/106
f 729/364/114 737/375/116 730/371/62
f 736/380/119 732/370/101 731/373/117
f 733/369/97 726/382/60 719/381/99
f 726/382/60 733/369/97 734/376/120
f 726/383/60 727/366/95 725/367/96
f 726/383/60 740/378/121 727/366/95
f 745/385/63 735/384/118 736/380/119
f 743/386/66 737/375/116 738/379/122
f 747/388/64 726/387/60 734/389/120
f 748/391/16 740/390/121 726/392/60
f 741/394/65 739/393/115 740/390/121
f 746/395/11 734/389/120 735/384/118
f 744/396/15 736/380/119 737/375/116
f 742/397/12 738/379/122 739/393/115
f 763/313/93 749/315/94 762/314/95
f 763/313/93 762/314/95 764/316/96
f 763/317/93 756/319/97 755/318/98
f 756/319/97 763/317/93 770/320/99
f 753/322/100 757/321/101 758/323/102
f 760/324/103 752/325/104 759/329/62
f 762/314/95 750/330/105 761/327/106
f 754/328/107 756/319/97 757/321/101
f 752/325/104 758/323/102 759/329/62
f 761/327/106 751/326/108 760/324/103
f 758/323/102 769/331/109 768/332/110
f 765/333/111 760/324/103 766/335/112
f 759/329/62 768/332/110 767/334/113
f 769/331/109 756/319/97 770/320/99
f 762/314/95 765/333/111 764/316/96
f 760/324/103 767/334/113 766/335/112
f 769/337/109 771/336/48 772/338/11
f 767/334/113 773/339/79 774/340/13
f 765/342/111 775/341/19 776/82/12
f 763/344/93 777/343/20 778/148/14
f 770/346/99 778/345/14 771/336/48
f 768/332/110 772/338/11 773/339/79
f 766/335/112 774/340/13 775/341/19
f 764/347/96 776/82/12 777/343/20
f 793/349/96 781/348/12 780/350/20
f 791/352/112 783/351/13 782/353/19
f 789/355/110 785/354/11 784/356/79
f 787/358/99 779/357/14 786/359/48
f 794/360/60 780/350/20 779/345/14
f 792/361/111 782/353/19 781/348/12
f 790/362/113 784/356/79 783/351/13
f 788/363/109 786/359/48 785/354/11
f 797/364/114 790/362/113 791/352/112
f 795/366/95 792/365/111 793/367/96
f 788/368/109 801/369/97 787/381/99
f 798/371/62 789/355/110 790/362/113
f 796/372/106 791/352/112 792/365/111
f 789/355/110 800/370/101 788/368/109
f 807/374/115 797/364/114 796/372/106
f 805/375/116 799/373/117 798/371/62
f 803/377/118 801/369/97 800/370/101
f 795/366/95 807/374/115 796/372/106
f 797/364/114 805/375/116 798/371/62
f 804/380/119 800/370/101 799/373/117
f 801/369/97 794/382/60 787/381/99
f 794/382/60 801/369/97 802/376/120
f 794/383/60 795/366/95 793/367/96
f 794/383/60 808/378/121 795/366/95
f 813/385/63 803/384/118 804/380/119
f 811/386/66 805/375/116 806/379/122
f 815/388/64 794/387/60 802/389/120
f 816/391/16 808/390/121 794/392/60
f 809/394/65 807/393/115 808/390/121
f 814/395/11 802/389/120 803/384/118
f 812/396/15 804/380/119 805/375/116
f 810/397/12 806/379/122 807/393/115
f 121/233/21 133/246/21 132/234/16
f 128/236/22 140/247/22 139/237/23
f 118/239/24 130/249/24 129/240/12
f 125/242/25 137/251/25 136/243/26
f 122/245/27 134/253/27 133/246/21
f 117/241/12 129/240/12 140/247/22
f 119/248/28 131/254/28 130/249/24
f 126/250/15 138/255/15 137/251/25
f 123/252/11 135/543/11 134/253/27
f 120/235/16 132/234/16 131/254/28
f 127/238/23 139/237/23 138/255/15
f 124/244/26 136/243/26 135/256/11
f 157/244/27 145/243/27 146/256/11
f 155/250/16 154/238/28 142/237/28
f 161/235/15 149/234/15 150/254/23
f 158/252/11 146/543/11 147/253/26
f 155/250/16 143/255/16 144/251/21
f 162/248/23 150/254/23 151/249/22
f 164/241/12 152/240/12 141/247/24
f 159/245/26 147/253/26 148/246/25
f 156/242/21 144/251/21 145/243/27
f 163/239/22 151/249/22 152/240/12
f 153/236/24 141/247/24 142/237/28
f 160/233/25 148/246/25 149/234/15
f 564/258/29 281/267/38 550/259/30
f 561/261/32 562/268/39 549/262/33
f 544/264/35 543/523/83 546/265/36
f 564/258/29 544/264/35 545/266/37
f 563/260/31 550/259/30 549/262/33
f 547/269/40 548/263/34 285/270/41
f 550/259/30 283/522/78 284/272/43
f 281/267/38 545/266/37 288/273/44
f 310/282/19 483/411/90 484/283/53
f 308/285/55 309/408/89 486/286/56
f 306/280/51 489/279/50 490/288/58
f 291/290/14 302/403/48 303/291/52
f 293/293/15 300/404/87 301/294/49
f 295/296/13 298/405/88 299/297/61
f 379/299/11 380/309/63 372/300/63
f 377/96/16 378/311/64 370/302/64
f 375/304/12 376/312/65 368/305/65
f 382/307/66 375/304/12 367/306/12
f 380/309/63 381/94/15 373/310/15
f 378/311/64 379/544/11 371/117/11
f 376/312/65 377/96/16 369/303/16
f 381/94/15 382/307/66 374/308/66
f 395/299/11 396/309/63 388/300/63
f 393/96/16 394/311/64 386/302/64
f 391/304/12 392/312/65 384/305/65
f 398/307/66 391/304/12 383/306/12
f 396/309/63 397/94/15 389/310/15
f 394/311/64 395/544/11 387/117/11
f 392/312/65 393/96/16 385/303/16
f 397/94/15 398/307/66 390/308/66
f 411/299/11 412/309/63 404/300/63
f 409/96/16 410/311/64 402/302/64
f 407/304/12 408/312/65 400/305/65
f 414/307/66 407/304/12 399/306/12
f 412/309/63 413/94/15 405/310/15
f 410/311/64 411/544/11 403/117/11
f 408/312/65 409/96/16 401/303/16
f 413/94/15 414/307/66 406/308/66
f 423/321/34 420/328/76 419/322/71
f 426/324/73 425/329/30 418/325/74
f 427/327/37 416/330/77 415/315/68
f 422/319/40 421/318/70 420/328/76
f 424/323/72 419/322/71 418/325/74
f 427/327/37 426/324/73 417/326/75
f 435/331/41 423/321/34 424/323/72
f 431/333/44 432/335/45 426/324/73
f 434/332/43 424/323/72 425/329/30
f 435/331/41 436/320/42 422/319/40
f 431/333/44 427/327/37 428/314/36
f 433/334/78 425/329/30 426/324/73
f 437/336/79 436/346/42 435/337/41
f 439/339/48 434/332/43 433/334/78
f 441/341/20 432/335/45 431/342/44
f 443/343/19 430/347/69 429/344/67
f 444/345/13 429/545/67 436/346/42
f 438/338/11 435/337/41 434/332/43
f 440/340/14 433/334/78 432/335/45
f 442/82/12 431/342/44 430/347/69
f 447/348/12 458/361/44 459/349/69
f 449/351/14 456/362/78 457/352/45
f 451/354/11 454/363/41 455/355/43
f 445/357/13 460/546/80 453/358/42
f 446/350/19 459/349/69 460/360/80
f 448/353/20 457/352/45 458/361/44
f 450/356/48 455/355/43 456/362/78
f 452/359/79 453/358/42 454/363/41
f 456/362/78 464/371/30 463/364/73
f 458/365/44 462/372/37 461/366/36
f 454/368/41 453/381/42 467/369/40
f 455/355/43 465/373/81 464/371/30
f 457/352/45 463/364/73 462/372/37
f 455/355/43 454/368/41 466/370/34
f 463/364/73 472/379/29 473/374/35
f 465/373/81 470/380/84 471/375/31
f 466/370/34 467/369/40 468/376/82
f 461/366/36 462/372/37 473/374/35
f 463/364/73 464/371/30 471/375/31
f 466/370/34 469/377/32 470/380/84
f 469/384/32 480/395/11 479/385/63
f 471/375/31 478/396/15 477/386/66
f 460/387/80 482/547/16 481/388/64
f 474/390/83 475/394/65 482/391/16
f 473/393/35 476/397/12 475/394/65
f 468/389/82 481/388/64 480/395/11
f 470/380/84 479/385/63 478/396/15
f 472/379/29 477/386/66 476/397/12
f 289/398/16 304/548/86 297/399/85
f 290/292/60 303/291/52 304/401/86
f 292/295/30 301/294/49 302/403/48
f 294/298/62 299/297/61 300/404/87
f 296/400/80 297/399/85 298/405/88
f 300/406/87 308/285/55 307/275/46
f 297/407/85 483/411/90 310/282/19
f 300/406/87 299/412/61 309/408/89
f 304/409/86 303/281/52 306/280/51
f 304/410/86 305/413/59 483/411/90
f 298/405/88 310/282/19 309/408/89
f 307/275/46 308/285/55 487/287/57
f 310/282/19 485/284/54 486/286/56
f 305/413/59 490/549/58 484/283/53
f 504/414/59 491/550/58 497/415/53
f 499/417/19 496/451/54 495/418/56
f 502/420/46 501/430/55 494/421/57
f 510/423/61 511/431/88 499/417/19
f 505/424/86 504/414/59 498/416/90
f 506/426/52 503/449/51 504/427/59
f 509/429/87 510/423/61 500/419/89
f 512/425/85 498/416/90 499/417/19
f 509/429/87 501/430/55 502/420/46
f 513/433/80 512/445/85 511/431/88
f 515/435/62 510/446/61 509/436/87
f 517/438/30 508/447/49 507/439/48
f 519/441/60 506/448/52 505/442/86
f 520/444/16 505/551/86 512/445/85
f 514/434/13 511/431/88 510/446/61
f 516/437/15 509/436/87 508/447/49
f 518/440/14 507/439/48 506/448/52
f 503/449/51 492/453/50 491/450/58
f 501/430/55 500/419/89 495/418/56
f 498/416/90 497/415/53 496/451/54
f 534/454/37 521/486/44 527/455/45
f 529/457/30 526/487/78 525/458/43
f 532/460/40 531/468/34 524/461/41
f 541/463/31 529/457/30 530/459/81
f 542/465/29 535/466/35 534/454/37
f 535/466/35 536/488/83 533/467/36
f 540/464/39 530/459/81 531/468/34
f 541/463/31 542/465/29 528/456/91
f 539/469/32 531/468/34 532/460/40
f 497/471/53 536/474/83 535/472/35
f 491/473/58 537/552/80 536/474/83
f 492/475/50 538/479/82 537/476/80
f 507/478/48 539/481/32 538/479/82
f 493/480/47 540/483/39 539/481/32
f 494/482/57 541/463/31 540/483/39
f 495/484/56 542/485/29 541/463/31
f 496/451/54 535/472/35 542/485/29
f 533/467/36 522/490/69 521/486/44
f 531/468/34 530/459/81 525/458/43
f 529/457/30 528/456/91 527/455/45
f 527/491/45 557/503/20 556/492/14
f 525/493/43 555/504/48 554/494/11
f 522/496/69 552/502/19 551/497/12
f 523/499/42 553/505/79 558/237/13
f 537/501/80 558/553/13 552/502/19
f 521/498/44 551/497/12 557/503/20
f 526/487/78 556/492/14 555/504/48
f 524/495/41 554/494/11 553/505/79
f 561/261/32 548/263/34 547/269/40
f 484/507/53 543/510/83 544/508/35
f 490/509/58 559/554/80 543/510/83
f 490/511/58 489/515/50 560/512/82
f 302/514/48 561/517/32 560/512/82
f 488/516/47 562/519/39 561/517/32
f 487/518/57 563/260/31 562/519/39
f 486/520/56 564/521/29 563/260/31
f 485/284/54 544/508/35 564/521/29
f 546/265/36 287/525/69 288/273/44
f 549/262/33 284/272/43 285/270/41
f 550/259/30 281/267/38 282/274/45
f 282/527/45 571/540/20 570/528/14
f 284/529/43 569/541/48 568/530/11
f 287/532/69 566/539/19 565/533/12
f 286/535/42 567/542/79 572/536/13
f 559/538/80 572/126/13 566/539/19
f 288/534/44 565/533/12 571/540/20
f 283/522/78 570/528/14 569/541/48
f 285/531/41 568/530/11 567/542/79
f 621/321/34 618/328/76 617/322/71
f 624/324/73 623/329/30 616/325/74
f 625/327/37 614/330/77 613/315/68
f 620/319/40 619/318/70 618/328/76
f 622/323/72 617/322/71 616/325/74
f 625/327/37 624/324/73 615/326/75
f 633/331/41 621/321/34 622/323/72
f 629/333/44 630/335/45 624/324/73
f 632/332/43 622/323/72 623/329/30
f 633/331/41 634/320/42 620/319/40
f 629/333/44 625/327/37 626/314/36
f 631/334/78 623/329/30 624/324/73
f 635/336/79 634/346/42 633/337/41
f 637/339/48 632/332/43 631/334/78
f 639/341/20 630/335/45 629/342/44
f 641/343/19 628/347/69 627/344/67
f 642/345/13 627/545/67 634/346/42
f 636/338/11 633/337/41 632/332/43
f 638/340/14 631/334/78 630/335/45
f 640/82/12 629/342/44 628/347/69
f 645/348/12 656/361/44 657/349/69
f 647/351/14 654/362/78 655/352/45
f 649/354/11 652/363/41 653/355/43
f 643/357/13 658/546/80 651/358/42
f 644/350/19 657/349/69 658/360/80
f 646/353/20 655/352/45 656/361/44
f 648/356/48 653/355/43 654/362/78
f 650/359/79 651/358/42 652/363/41
f 654/362/78 662/371/30 661/364/92
f 656/365/44 660/372/37 659/366/36
f 652/368/41 651/381/42 665/369/40
f 653/355/43 663/373/81 662/371/30
f 655/352/45 661/364/92 660/372/37
f 653/355/43 652/368/41 664/370/34
f 661/364/92 670/379/29 671/374/35
f 662/371/30 663/373/81 668/380/84
f 665/369/40 666/376/82 667/377/32
f 660/372/37 671/374/35 672/378/83
f 661/364/92 662/371/30 669/375/31
f 664/370/34 667/377/32 668/380/84
f 667/384/32 678/395/11 677/385/63
f 669/375/31 676/396/15 675/386/66
f 658/387/80 680/547/16 679/388/64
f 672/390/83 673/394/65 680/391/16
f 671/393/35 674/397/12 673/394/65
f 666/389/82 679/388/64 678/395/11
f 668/380/84 677/385/63 676/396/15
f 670/379/29 675/386/66 674/397/12
f 685/322/100 686/328/107 689/321/101
f 692/324/103 683/326/108 684/325/104
f 694/314/95 681/315/94 682/330/105
f 686/328/107 687/318/98 688/319/97
f 684/325/104 685/322/100 690/323/102
f 693/327/106 682/330/105 683/326/108
f 690/323/102 689/321/101 701/331/109
f 697/333/111 693/327/106 692/324/103
f 691/329/62 690/323/102 700/332/110
f 701/331/109 689/321/101 688/319/97
f 694/314/95 693/327/106 697/333/111
f 692/324/103 691/329/62 699/334/113
f 701/337/109 702/346/99 703/336/48
f 699/334/113 700/332/110 705/339/79
f 697/342/111 698/335/112 707/341/19
f 695/344/93 696/347/96 709/343/20
f 702/346/99 695/545/93 710/345/14
f 700/332/110 701/337/109 704/338/11
f 698/335/112 699/334/113 706/340/13
f 696/347/96 697/342/111 708/82/12
f 725/349/96 724/361/111 713/348/12
f 723/352/112 722/362/113 715/351/13
f 721/355/110 720/363/109 717/354/11
f 719/358/99 726/546/60 711/357/14
f 726/360/60 725/349/96 712/350/20
f 724/361/111 723/352/112 714/353/19
f 722/362/113 721/355/110 716/356/79
f 720/363/109 719/358/99 718/359/48
f 729/364/114 730/371/62 722/362/113
f 727/366/95 728/372/106 724/365/111
f 720/368/109 732/370/101 733/369/97
f 730/371/62 731/373/117 721/355/110
f 728/372/106 729/364/114 723/352/112
f 721/355/110 731/373/117 732/370/101
f 739/374/115 738/379/122 729/364/114
f 737/375/116 736/380/119 731/373/117
f 735/377/118 734/376/120 733/369/97
f 727/366/95 740/378/121 739/374/115
f 729/364/114 738/379/122 737/375/116
f 736/380/119 735/377/118 732/370/101
f 745/385/63 746/395/11 735/384/118
f 743/386/66 744/396/15 737/375/116
f 747/388/64 748/547/16 726/387/60
f 748/391/16 741/394/65 740/390/121
f 741/394/65 742/397/12 739/393/115
f 746/395/11 747/388/64 734/389/120
f 744/396/15 745/385/63 736/380/119
f 742/397/12 743/386/66 738/379/122
f 753/322/100 754/328/107 757/321/101
f 760/324/103 751/326/108 752/325/104
f 762/314/95 749/315/94 750/330/105
f 754/328/107 755/318/98 756/319/97
f 752/325/104 753/322/100 758/323/102
f 761/327/106 750/330/105 751/326/108
f 758/323/102 757/321/101 769/331/109
f 765/333/111 761/327/106 760/324/103
f 759/329/62 758/323/102 768/332/110
f 769/331/109 757/321/101 756/319/97
f 762/314/95 761/327/106 765/333/111
f 760/324/103 759/329/62 767/334/113
f 769/337/109 770/346/99 771/336/48
f 767/334/113 768/332/110 773/339/79
f 765/342/111 766/335/112 775/341/19
f 763/344/93 764/347/96 777/343/20
f 770/346/99 763/545/93 778/345/14
f 768/332/110 769/337/109 772/338/11
f 766/335/112 767/334/113 774/340/13
f 764/347/96 765/342/111 776/82/12
f 793/349/96 792/361/111 781/348/12
f 791/352/112 790/362/113 783/351/13
f 789/355/110 788/363/109 785/354/11
f 787/358/99 794/546/60 779/357/14
f 794/360/60 793/349/96 780/350/20
f 792/361/111 791/352/112 782/353/19
f 790/362/113 789/355/110 784/356/79
f 788/363/109 787/358/99 786/359/48
f 797/364/114 798/371/62 790/362/113
f 795/366/95 796/372/106 792/365/111
f 788/368/109 800/370/101 801/369/97
f 798/371/62 799/373/117 789/355/110
f 796/372/106 797/364/114 791/352/112
f 789/355/110 799/373/117 800/370/101
f 807/374/115 806/379/122 797/364/114
f 805/375/116 804/380/119 799/373/117
f 803/377/118 802/376/120 801/369/97
f 795/366/95 808/378/121 807/374/115
f 797/364/114 806/379/122 805/375/116
f 804/380/119 803/377/118 800/370/101
f 813/385/63 814/395/11 803/384/118
f 811/386/66 812/396/15 805/375/116
f 815/388/64 816/547/16 794/387/60
f 816/391/16 809/394/65 808/390/121
f 809/394/65 810/397/12 807/393/115
f 814/395/11 815/388/64 802/389/120
f 812/396/15 813/385/63 804/380/119
f 810/397/12 811/386/66 806/379/122
f 822/37/17 825/38/17 821/39/17
f 820/40/15 823/41/15 818/42/15
f 817/43/16 821/44/16 819/23/16
f 819/31/13 824/45/13 820/46/13
f 818/42/14 822/47/14 817/43/14
f 827/48/12 825/38/12 826/49/12
f 821/50/13 828/51/13 824/45/13
f 823/41/14 826/49/14 822/47/14
f 824/52/18 827/48/18 823/53/18
f 822/37/17 826/49/17 825/38/17
f 820/40/15 824/216/15 823/41/15
f 817/43/16 822/47/16 821/44/16
f 819/31/13 821/50/13 824/45/13
f 818/42/14 823/41/14 822/47/14
f 827/48/12 828/51/12 825/38/12
f 821/50/13 825/38/13 828/51/13
f 823/41/14 827/48/14 826/49/14
f 824/52/18 828/51/18 827/48/18
o Slider
v 2.250000 1.250000 0.250000
v 2.250000 1.250000 -0.250000
v 1.750000 1.250000 0.250000
v 1.750000 1.250000 -0.250000
v 2.250000 1.625000 0.250000
v 2.250000 1.625000 -0.250000
v 1.750000 1.625000 0.250000
v 1.750000 1.625000 -0.250000
vn -0.0000 -0.0000 1.0000
vn -1.0000 -0.0000 -0.0000
vn -0.0000 -0.0000 -1.0000
vn 1.0000 -0.0000 -0.0000
vn -0.0000 1.0000 -0.0000
vt 0.361582 0.806818
vt 0.378531 0.852273
vt 0.361582 0.852273
vt 0.378531 0.886364
vt 0.401130 0.852273
vt 0.401130 0.886364
vt 0.418079 0.852273
vt 0.401130 0.806818
vt 0.418079 0.806818
vt 0.378531 0.772727
vt 0.401130 0.772727
vt 0.378531 0.806818
s 1
f 829/555/123 835/556/123 831/557/123
f 831/558/124 836/559/124 832/560/124
f 832/561/125 834/562/125 830/563/125
f 834/562/126 829/564/126 830/565/126
f 836/559/127 833/566/127 834/562/127
f 829/555/123 833/566/123 835/556/123
f 831/558/124 835/556/124 836/559/124
f 832/561/125 836/559/125 834/562/125
f 834/562/126 833/566/126 829/564/126
f 836/559/127 835/556/127 833/566/127
