# Made in Blockbench 5.1.3
mtllib sign_deco.mtl

o sign_base
v 0.375 0.375 0.375
v 0.375 0.375 -0.375
v 0.375 0 0.375
v 0.375 0 -0.375
v -0.375 0.375 0.375
v -0.375 0.375 -0.375
v -0.375 0 0.375
v -0.375 0 -0.375
v 0 0.375 0
v 0 3 0
v 0.016746875 0.375 0.0625
v 0.016746875 3 0.0625
v 0.045753125 0.375 0.045753125
v 0.045753125 3 0.045753125
v 0.0625 0.375 0.016746875
v 0.0625 3 0.016746875
v 0.0625 0.375 -0.016746875
v 0.0625 3 -0.016746875
v 0.045753125 0.375 -0.045753125
v 0.045753125 3 -0.045753125
v 0.016746875 0.375 -0.0625
v 0.016746875 3 -0.0625
v -0.016746875 0.375 -0.0625
v -0.016746875 3 -0.0625
v -0.045753125 0.375 -0.045753125
v -0.045753125 3 -0.045753125
v -0.0625 0.375 -0.016746875
v -0.0625 3 -0.016746875
v -0.0625 0.375 0.016746875
v -0.0625 3 0.016746875
v -0.045753125 0.375 0.045753125
v -0.045753125 3 0.045753125
v -0.016746875 0.375 0.0625
v -0.016746875 3 0.0625
v -0.5014342088718591 2.50625 -0.08125
v 0.0063380194395249445 3.3767627018922193 -0.05
v 0.0063380194395249445 3.3767627018922193 -0.1125
v 0.5063380194395247 2.5107372981077805 -0.05
v 0.5063380194395247 2.5107372981077805 -0.1125
vt 0.78125 1
vt 0.40625 1
vt 0.40625 0.8125
vt 0.78125 0.8125
vt 0.78125 0.59375
vt 0.78125 0.78125
vt 0.40625 0.78125
vt 0.40625 0.59375
vt 0 0.625
vt 0.375 0.625
vt 0.375 1
vt 0 1
vt 0.375 0.21875
vt 0.375 0.59375
vt 0 0.59375
vt 0 0.21875
vt 0.78125 0.375
vt 0.78125 0.5625
vt 0.40625 0.5625
vt 0.40625 0.375
vt 0.78125 0.34375
vt 0.40625 0.34375
vt 0.40625 0.15625
vt 0.78125 0.15625
vt 0.2145625 0.9958125
vt 0.2073109375 1
vt 0.203125 0.984375
vt 0.11356171875 0.34375
vt 0.12193515625 0.34375
vt 0.12193515625 1
vt 0.11356171875 1
vt 0.2073109375 0.921875
vt 0.2145625 0.9260609375
vt 0.203125 0.9375
vt 0.21875 0.9885609375
vt 0.2145625 0.9958125
vt 0.203125 0.984375
vt 0.143690625 0.34375
vt 0.1520640625 0.34375
vt 0.1520640625 1
vt 0.143690625 1
vt 0.2145625 0.9260609375
vt 0.21875 0.9333125
vt 0.203125 0.9375
vt 0.21875 0.9801875
vt 0.21875 0.9885609375
vt 0.203125 0.984375
vt 0.1520640625 0.34375
vt 0.1604359375 0.34375
vt 0.1604359375 1
vt 0.1520640625 1
vt 0.21875 0.9333125
vt 0.21875 0.9416859375
vt 0.203125 0.9375
vt 0.2145640625 0.9729359375
vt 0.21875 0.9801875
vt 0.203125 0.984375
vt 0.1604359375 0.34375
vt 0.168809375 0.34375
vt 0.168809375 1
vt 0.1604359375 1
vt 0.21875 0.9416859375
vt 0.2145640625 0.9489375
vt 0.203125 0.9375
vt 0.2073125 0.96875
vt 0.2145640625 0.9729359375
vt 0.203125 0.984375
vt 0.04993984375 0.34375
vt 0.05831328125 0.34375
vt 0.05831328125 1
vt 0.04993984375 1
vt 0.2145640625 0.9489375
vt 0.2073125 0.953125
vt 0.203125 0.9375
vt 0.1989390625 0.96875
vt 0.2073125 0.96875
vt 0.203125 0.984375
vt 0.05831328125 0.34375
vt 0.06668671875 0.34375
vt 0.06668671875 1
vt 0.05831328125 1
vt 0.2073125 0.953125
vt 0.1989390625 0.953125
vt 0.203125 0.9375
vt 0.1916875 0.9729359375
vt 0.1989390625 0.96875
vt 0.203125 0.984375
vt 0.06668671875 0.34375
vt 0.07506015625 0.34375
vt 0.07506015625 1
vt 0.06668671875 1
vt 0.1989390625 0.953125
vt 0.1916875 0.9489390625
vt 0.203125 0.9375
vt 0.1875 0.9801875
vt 0.1916875 0.9729359375
vt 0.203125 0.984375
vt 0.003065625 0.34375
vt 0.0114390625 0.34375
vt 0.0114375 1
vt 0.0030640625 1
vt 0.1916875 0.9489390625
vt 0.1875 0.9416875
vt 0.203125 0.9375
vt 0.1875 0.9885609375
vt 0.1875 0.9801875
vt 0.203125 0.984375
vt 0.0114390625 0.34375
vt 0.0198125 0.34375
vt 0.0198109375 1
vt 0.0114375 1
vt 0.1875 0.9416875
vt 0.1875 0.9333140625
vt 0.203125 0.9375
vt 0.1916859375 0.9958125
vt 0.1875 0.9885609375
vt 0.203125 0.984375
vt 0.0198125 0.34375
vt 0.0281859375 0.34375
vt 0.028184375 1
vt 0.0198109375 1
vt 0.1875 0.9333140625
vt 0.1916859375 0.9260625
vt 0.203125 0.9375
vt 0.1989375 1
vt 0.1916859375 0.9958125
vt 0.203125 0.984375
vt 0.09681484375 0.34375
vt 0.10518828125 0.34375
vt 0.10518828125 1
vt 0.09681484375 1
vt 0.1916859375 0.9260625
vt 0.1989375 0.921875
vt 0.203125 0.9375
vt 0.2073109375 1
vt 0.1989375 1
vt 0.203125 0.984375
vt 0.10518828125 0.34375
vt 0.11356171875 0.34375
vt 0.11356171875 1
vt 0.10518828125 1
vt 0.1989375 0.921875
vt 0.2073109375 0.921875
vt 0.203125 0.9375
vt 0.96875 0.96875
vt 0.96875 1
vt 0.46875 1
vt 0.46875 0.96875
vt 0 0.15235937499999996
vt 0.03125 0.15235937499999996
vt 0.015625 0.65625
vt 0.0016553125 0.743818125
vt 0.4358446875 0.4958675
vt 0.4358446875 1
vt 0.3766553125 0.368818125
vt 0.8108446875 0.12086750000000002
vt 0.8108446875 0.625
vt 0.0625 0.12110937499999996
vt 0.09375 0.12110937499999996
vt 0.078125 0.625
vn 1 0 0
vn -1 0 0
vn 0 1 0
vn 0 -1 0
vn 0 0 1
vn 0 0 -1
vn 0 -1 0
vn 0.500002435262396 0 0.8660239977804737
vn 0 1 0
vn 0 -1 0
vn 0.8660239977804737 0 0.500002435262396
vn 0 1 0
vn 0 -1 0
vn 1 0 0
vn 0 1 0
vn 0 -1 0
vn 0.8660239977804737 0 -0.500002435262396
vn 0 1 0
vn 0 -1 0
vn 0.500002435262396 0 -0.8660239977804737
vn 0 1 0
vn 0 -1 0
vn 0 0 -1
vn 0 1 0
vn 0 -1 0
vn -0.500002435262396 0 -0.8660239977804737
vn 0 1 0
vn 0 -1 0
vn -0.8660239977804737 0 -0.500002435262396
vn 0 1 0
vn 0 -1 0
vn -1 0 0
vn 0 1 0
vn 0 -1 0
vn -0.8660239977804737 0 0.500002435262396
vn 0 1 0
vn 0 -1 0
vn -0.500002435262396 0 0.8660239977804737
vn 0 1 0
vn 0 -1 0
vn 0 0 1
vn 0 1 0
vn 0.8660254037844388 0.4999999999999998 0
vn -0.8637904954858893 0.5038511485629878 0
vn -0.030909772123696642 -0.017845765256206236 0.9993628543475496
vn -0.03090977212369664 -0.017845765256206233 -0.9993628543475496
vn 0.004452646638569564 -0.9999900869198216 0
usemtl m_f16b8625-7a4d-2ebd-6e00-07c563883dd3
f 2/1/1 1/2/1 3/3/1 4/4/1
f 7/5/2 5/6/2 6/7/2 8/8/2
f 5/9/3 1/10/3 2/11/3 6/12/3
f 4/13/4 3/14/4 7/15/4 8/16/4
f 3/17/5 1/18/5 5/19/5 7/20/5
f 6/21/6 2/22/6 4/23/6 8/24/6
usemtl m_e80236ae-cf1a-f83f-4b9c-2150a2179874
f 13/25/7 11/26/7 9/27/7
f 11/28/8 13/29/8 14/30/8 12/31/8
f 12/32/9 14/33/9 10/34/9
f 15/35/10 13/36/10 9/37/10
f 13/38/11 15/39/11 16/40/11 14/41/11
f 14/42/12 16/43/12 10/44/12
f 17/45/13 15/46/13 9/47/13
f 15/48/14 17/49/14 18/50/14 16/51/14
f 16/52/15 18/53/15 10/54/15
f 19/55/16 17/56/16 9/57/16
f 17/58/17 19/59/17 20/60/17 18/61/17
f 18/62/18 20/63/18 10/64/18
f 21/65/19 19/66/19 9/67/19
f 19/68/20 21/69/20 22/70/20 20/71/20
f 20/72/21 22/73/21 10/74/21
f 23/75/22 21/76/22 9/77/22
f 21/78/23 23/79/23 24/80/23 22/81/23
f 22/82/24 24/83/24 10/84/24
f 25/85/25 23/86/25 9/87/25
f 23/88/26 25/89/26 26/90/26 24/91/26
f 24/92/27 26/93/27 10/94/27
f 27/95/28 25/96/28 9/97/28
f 25/98/29 27/99/29 28/100/29 26/101/29
f 26/102/30 28/103/30 10/104/30
f 29/105/31 27/106/31 9/107/31
f 27/108/32 29/109/32 30/110/32 28/111/32
f 28/112/33 30/113/33 10/114/33
f 31/115/34 29/116/34 9/117/34
f 29/118/35 31/119/35 32/120/35 30/121/35
f 30/122/36 32/123/36 10/124/36
f 33/125/37 31/126/37 9/127/37
f 31/128/38 33/129/38 34/130/38 32/131/38
f 32/132/39 34/133/39 10/134/39
f 11/135/40 33/136/40 9/137/40
f 33/138/41 11/139/41 12/140/41 34/141/41
f 34/142/42 12/143/42 10/144/42
usemtl m_6ccc1347-28a2-0475-f73f-04a11695f3d5
f 37/145/43 36/146/43 38/147/43 39/148/43
f 36/149/44 37/150/44 35/151/44
f 38/152/45 36/153/45 35/154/45
f 37/155/46 39/156/46 35/157/46
f 39/158/47 38/159/47 35/160/47